<?xml version="1.0" encoding="UTF-8"?>
<svg xmlns="http://www.w3.org/2000/svg" xmlns:xlink="http://www.w3.org/1999/xlink" width="595.275591" height="841.889764" viewBox="0 0 595.275591 841.889764">
<rect x="-59.527559" y="-84.188976" width="714.330709" height="1010.267717" fill="rgb(100%, 100%, 100%)" fill-opacity="1"/>
<path fill="none" stroke-width="112" stroke-linecap="round" stroke-linejoin="round" stroke="rgb(0%, 0%, 0%)" stroke-opacity="1" stroke-miterlimit="10" d="M 36233.072917 21236.979167 L 35485.9375 21236.979167 L 35485.9375 20952.083333 L 35521.875 20880.989583 L 35557.03125 20846.09375 L 35628.125 20809.895833 L 35734.895833 20809.895833 L 35805.989583 20846.09375 L 35841.927083 20880.989583 L 35877.083333 20952.083333 L 35877.083333 21236.979167 " transform="matrix(0.015, 0, 0, 0.015, 0, 0)"/>
<path fill="none" stroke-width="112" stroke-linecap="round" stroke-linejoin="round" stroke="rgb(0%, 0%, 0%)" stroke-opacity="1" stroke-miterlimit="10" d="M 36233.072917 20490.104167 L 35485.9375 20490.104167 L 36233.072917 20063.020833 L 35485.9375 20063.020833 " transform="matrix(0.015, 0, 0, 0.015, 0, 0)"/>
<path fill="none" stroke-width="112" stroke-linecap="round" stroke-linejoin="round" stroke="rgb(0%, 0%, 0%)" stroke-opacity="1" stroke-miterlimit="10" d="M 36233.072917 19707.03125 L 35485.9375 19707.03125 L 35485.9375 19422.916667 L 35521.875 19352.083333 L 35557.03125 19315.885417 L 35628.125 19280.989583 L 35734.895833 19280.989583 L 35805.989583 19315.885417 L 35841.927083 19352.083333 L 35877.083333 19422.916667 L 35877.083333 19707.03125 " transform="matrix(0.015, 0, 0, 0.015, 0, 0)"/>
<path fill="none" stroke-width="90" stroke-linecap="round" stroke-linejoin="round" stroke="rgb(0%, 0%, 0%)" stroke-opacity="1" stroke-miterlimit="10" d="M 35310.9375 19058.072917 L 36439.0625 19058.072917 " transform="matrix(0.015, 0, 0, 0.015, 0, 0)"/>
<path fill="none" stroke-width="90" stroke-linecap="round" stroke-linejoin="round" stroke="rgb(0%, 0%, 0%)" stroke-opacity="1" stroke-miterlimit="10" d="M 39755.989583 17498.958333 L 39755.989583 17853.125 " transform="matrix(0.015, 0, 0, 0.015, 0, 0)"/>
<path fill="none" stroke-width="90" stroke-linecap="round" stroke-linejoin="round" stroke="rgb(0%, 0%, 0%)" stroke-opacity="1" stroke-miterlimit="10" d="M 38975 17498.958333 L 38975 17853.125 " transform="matrix(0.015, 0, 0, 0.015, 0, 0)"/>
<path fill="none" stroke-width="90" stroke-linecap="round" stroke-linejoin="round" stroke="rgb(0%, 0%, 0%)" stroke-opacity="1" stroke-miterlimit="10" d="M 35310.9375 21500 L 38777.083333 21500 " transform="matrix(0.015, 0, 0, 0.015, 0, 0)"/>
<path fill="none" stroke-width="112" stroke-linecap="round" stroke-linejoin="round" stroke="rgb(0%, 0%, 0%)" stroke-opacity="1" stroke-miterlimit="10" d="M 33860.9375 21236.979167 L 33115.104167 21236.979167 L 33860.9375 20809.895833 L 33115.104167 20809.895833 " transform="matrix(0.015, 0, 0, 0.015, 0, 0)"/>
<path fill="none" stroke-width="112" stroke-linecap="round" stroke-linejoin="round" stroke="rgb(0%, 0%, 0%)" stroke-opacity="1" stroke-miterlimit="10" d="M 33860.9375 20453.90625 L 33115.104167 20453.90625 L 33115.104167 20170.052083 L 33150 20098.958333 L 33185.9375 20063.020833 L 33257.03125 20028.125 L 33363.020833 20028.125 L 33434.895833 20063.020833 L 33470.052083 20098.958333 L 33505.989583 20170.052083 L 33505.989583 20453.90625 " transform="matrix(0.015, 0, 0, 0.015, 0, 0)"/>
<path fill="none" stroke-width="112" stroke-linecap="round" stroke-linejoin="round" stroke="rgb(0%, 0%, 0%)" stroke-opacity="1" stroke-miterlimit="10" d="M 33860.9375 19707.03125 L 33115.104167 19707.03125 L 33860.9375 19280.989583 L 33115.104167 19280.989583 " transform="matrix(0.015, 0, 0, 0.015, 0, 0)"/>
<path fill="none" stroke-width="90" stroke-linecap="round" stroke-linejoin="round" stroke="rgb(0%, 0%, 0%)" stroke-opacity="1" stroke-miterlimit="10" d="M 34029.947917 21500 L 30563.020833 21500 " transform="matrix(0.015, 0, 0, 0.015, 0, 0)"/>
<path fill="none" stroke-width="90" stroke-linecap="round" stroke-linejoin="round" stroke="rgb(0%, 0%, 0%)" stroke-opacity="1" stroke-miterlimit="10" d="M 27365.104167 21753.125 L 35042.96875 21753.125 " transform="matrix(0.015, 0, 0, 0.015, 0, 0)"/>
<path fill="none" stroke-width="90" stroke-linecap="round" stroke-linejoin="round" stroke="rgb(0%, 0%, 0%)" stroke-opacity="1" stroke-miterlimit="10" d="M 27365.104167 23964.0625 L 35042.96875 23964.0625 " transform="matrix(0.015, 0, 0, 0.015, 0, 0)"/>
<path fill="none" stroke-width="90" stroke-linecap="round" stroke-linejoin="round" stroke="rgb(0%, 0%, 0%)" stroke-opacity="1" stroke-miterlimit="10" d="M 30234.895833 19059.114583 L 29107.03125 19059.114583 " transform="matrix(0.015, 0, 0, 0.015, 0, 0)"/>
<path fill="none" stroke-width="90" stroke-linecap="round" stroke-linejoin="round" stroke="rgb(0%, 0%, 0%)" stroke-opacity="1" stroke-miterlimit="10" d="M 30234.895833 13852.083333 L 30234.895833 21500 " transform="matrix(0.015, 0, 0, 0.015, 0, 0)"/>
<path fill="none" stroke-width="90" stroke-linecap="round" stroke-linejoin="round" stroke="rgb(0%, 0%, 0%)" stroke-opacity="1" stroke-miterlimit="10" d="M 32902.083333 13852.083333 L 32902.083333 21500 " transform="matrix(0.015, 0, 0, 0.015, 0, 0)"/>
<path fill="none" stroke-width="90" stroke-linecap="round" stroke-linejoin="round" stroke="rgb(0%, 0%, 0%)" stroke-opacity="1" stroke-miterlimit="10" d="M 30563.020833 13852.083333 L 30563.020833 21500 " transform="matrix(0.015, 0, 0, 0.015, 0, 0)"/>
<path fill="none" stroke-width="90" stroke-linecap="round" stroke-linejoin="round" stroke="rgb(0%, 0%, 0%)" stroke-opacity="1" stroke-miterlimit="10" d="M 34029.947917 19059.114583 L 32902.083333 19059.114583 " transform="matrix(0.015, 0, 0, 0.015, 0, 0)"/>
<path fill="none" stroke-width="112" stroke-linecap="round" stroke-linejoin="round" stroke="rgb(0%, 0%, 0%)" stroke-opacity="1" stroke-miterlimit="10" d="M 30066.927083 21236.979167 L 29320.052083 21236.979167 L 30066.927083 20809.895833 L 29320.052083 20809.895833 " transform="matrix(0.015, 0, 0, 0.015, 0, 0)"/>
<path fill="none" stroke-width="112" stroke-linecap="round" stroke-linejoin="round" stroke="rgb(0%, 0%, 0%)" stroke-opacity="1" stroke-miterlimit="10" d="M 30066.927083 20453.90625 L 29320.052083 20453.90625 L 29320.052083 20170.052083 L 29355.989583 20098.958333 L 29390.885417 20063.020833 L 29461.979167 20028.125 L 29569.010417 20028.125 L 29640.104167 20063.020833 L 29676.041667 20098.958333 L 29710.9375 20170.052083 L 29710.9375 20453.90625 " transform="matrix(0.015, 0, 0, 0.015, 0, 0)"/>
<path fill="none" stroke-width="112" stroke-linecap="round" stroke-linejoin="round" stroke="rgb(0%, 0%, 0%)" stroke-opacity="1" stroke-miterlimit="10" d="M 30066.927083 19707.03125 L 29320.052083 19707.03125 L 30066.927083 19280.989583 L 29320.052083 19280.989583 " transform="matrix(0.015, 0, 0, 0.015, 0, 0)"/>
<path fill="none" stroke-width="90" stroke-linecap="round" stroke-linejoin="round" stroke="rgb(0%, 0%, 0%)" stroke-opacity="1" stroke-miterlimit="10" d="M 34029.947917 13852.083333 L 30563.020833 13852.083333 " transform="matrix(0.015, 0, 0, 0.015, 0, 0)"/>
<path fill="none" stroke-width="90" stroke-linecap="round" stroke-linejoin="round" stroke="rgb(0%, 0%, 0%)" stroke-opacity="1" stroke-miterlimit="10" d="M 34029.947917 16294.010417 L 32902.083333 16294.010417 " transform="matrix(0.015, 0, 0, 0.015, 0, 0)"/>
<path fill="none" stroke-width="90" stroke-linecap="round" stroke-linejoin="round" stroke="rgb(0%, 0%, 0%)" stroke-opacity="1" stroke-miterlimit="10" d="M 34029.947917 13852.083333 L 34029.947917 21500 " transform="matrix(0.015, 0, 0, 0.015, 0, 0)"/>
<path fill="none" stroke-width="90" stroke-linecap="round" stroke-linejoin="round" stroke="rgb(0%, 0%, 0%)" stroke-opacity="1" stroke-miterlimit="10" d="M 35310.9375 21500 L 35310.9375 13852.083333 " transform="matrix(0.015, 0, 0, 0.015, 0, 0)"/>
<path fill="none" stroke-width="90" stroke-linecap="round" stroke-linejoin="round" stroke="rgb(0%, 0%, 0%)" stroke-opacity="1" stroke-miterlimit="10" d="M 36439.0625 21500 L 36439.0625 13852.083333 " transform="matrix(0.015, 0, 0, 0.015, 0, 0)"/>
<path fill="none" stroke-width="90" stroke-linecap="round" stroke-linejoin="round" stroke="rgb(0%, 0%, 0%)" stroke-opacity="1" stroke-miterlimit="10" d="M 38777.083333 21500 L 38777.083333 13852.083333 " transform="matrix(0.015, 0, 0, 0.015, 0, 0)"/>
<path fill="none" stroke-width="90" stroke-linecap="round" stroke-linejoin="round" stroke="rgb(0%, 0%, 0%)" stroke-opacity="1" stroke-miterlimit="10" d="M 35310.9375 13852.083333 L 38777.083333 13852.083333 " transform="matrix(0.015, 0, 0, 0.015, 0, 0)"/>
<path fill="none" stroke-width="112" stroke-linecap="round" stroke-linejoin="round" stroke="rgb(0%, 0%, 0%)" stroke-opacity="1" stroke-miterlimit="10" d="M 36753.90625 14922.916667 L 36753.90625 14176.041667 L 37038.020833 14176.041667 L 37109.114583 14210.9375 L 37145.052083 14246.875 L 37179.947917 14317.96875 L 37179.947917 14425 L 37145.052083 14496.09375 L 37109.114583 14530.989583 L 37038.020833 14566.927083 L 36753.90625 14566.927083 " transform="matrix(0.015, 0, 0, 0.015, 0, 0)"/>
<path fill="none" stroke-width="90" stroke-linecap="round" stroke-linejoin="round" stroke="rgb(0%, 0%, 0%)" stroke-opacity="1" stroke-miterlimit="10" d="M 35310.9375 16292.96875 L 36439.0625 16292.96875 " transform="matrix(0.015, 0, 0, 0.015, 0, 0)"/>
<path fill="none" stroke-width="90" stroke-linecap="round" stroke-linejoin="round" stroke="rgb(0%, 0%, 0%)" stroke-opacity="1" stroke-miterlimit="10" d="M 34671.09375 13598.958333 L 34671.09375 6189.0625 " transform="matrix(0.015, 0, 0, 0.015, 0, 0)"/>
<path fill="none" stroke-width="149" stroke-linecap="round" stroke-linejoin="round" stroke="rgb(0%, 0%, 0%)" stroke-opacity="1" stroke-miterlimit="10" d="M 35101.5625 6968.489583 L 36240.625 6968.489583 " transform="matrix(0.015, 0, 0, 0.015, 0, 0)"/>
<path fill="none" stroke-width="149" stroke-linecap="round" stroke-linejoin="round" stroke="rgb(0%, 0%, 0%)" stroke-opacity="1" stroke-miterlimit="10" d="M 35670.572917 7537.5 L 35670.572917 6399.479167 " transform="matrix(0.015, 0, 0, 0.015, 0, 0)"/>
<path fill="none" stroke-width="90" stroke-linecap="round" stroke-linejoin="round" stroke="rgb(0%, 0%, 0%)" stroke-opacity="1" stroke-miterlimit="10" d="M 34851.041667 6561.979167 L 34851.041667 6009.895833 " transform="matrix(0.015, 0, 0, 0.015, 0, 0)"/>
<path fill="none" stroke-width="90" stroke-linecap="round" stroke-linejoin="round" stroke="rgb(0%, 0%, 0%)" stroke-opacity="1" stroke-miterlimit="10" d="M 34851.041667 6009.895833 L 34477.083333 6009.895833 " transform="matrix(0.015, 0, 0, 0.015, 0, 0)"/>
<path fill="none" stroke-width="90" stroke-linecap="round" stroke-linejoin="round" stroke="rgb(0%, 0%, 0%)" stroke-opacity="1" stroke-miterlimit="10" d="M 34671.09375 11388.020833 L 26992.96875 11388.020833 " transform="matrix(0.015, 0, 0, 0.015, 0, 0)"/>
<path fill="none" stroke-width="90" stroke-linecap="round" stroke-linejoin="round" stroke="rgb(0%, 0%, 0%)" stroke-opacity="1" stroke-miterlimit="10" d="M 33876.302083 9160.416667 C 34020.833333 9485.416667 34020.833333 9856.510417 33876.041667 10181.510417 " transform="matrix(0.015, 0, 0, 0.015, 0, 0)"/>
<path fill="none" stroke-width="90" stroke-linecap="round" stroke-linejoin="round" stroke="rgb(0%, 0%, 0%)" stroke-opacity="1" stroke-miterlimit="10" d="M 33239.583333 10817.447917 C 32914.583333 10961.979167 32543.489583 10961.71875 32218.489583 10816.927083 " transform="matrix(0.015, 0, 0, 0.015, 0, 0)"/>
<path fill="none" stroke-width="90" stroke-linecap="round" stroke-linejoin="round" stroke="rgb(0%, 0%, 0%)" stroke-opacity="1" stroke-miterlimit="10" d="M 32707.552083 8414.84375 C 32890.625 8411.71875 33072.395833 8448.958333 33239.84375 8523.4375 " transform="matrix(0.015, 0, 0, 0.015, 0, 0)"/>
<path fill="none" stroke-width="90" stroke-linecap="round" stroke-linejoin="round" stroke="rgb(0%, 0%, 0%)" stroke-opacity="1" stroke-miterlimit="10" d="M 32219.010417 8524.21875 C 32379.6875 8452.604167 32553.645833 8415.625 32729.427083 8415.625 " transform="matrix(0.015, 0, 0, 0.015, 0, 0)"/>
<path fill="none" stroke-width="90" stroke-linecap="round" stroke-linejoin="round" stroke="rgb(0%, 0%, 0%)" stroke-opacity="1" stroke-miterlimit="10" d="M 31582.03125 10180.208333 C 31437.5 9855.208333 31437.760417 9484.114583 31582.552083 9159.114583 " transform="matrix(0.015, 0, 0, 0.015, 0, 0)"/>
<path fill="none" stroke-width="90" stroke-linecap="round" stroke-linejoin="round" stroke="rgb(0%, 0%, 0%)" stroke-opacity="1" stroke-miterlimit="10" d="M 30190.625 9670.052083 C 30190.625 10118.489583 29951.302083 10533.072917 29562.760417 10757.291667 C 29174.21875 10981.510417 28695.572917 10981.510417 28307.291667 10757.291667 C 27918.75 10533.072917 27679.427083 10118.489583 27679.427083 9670.052083 C 27679.427083 9221.354167 27918.75 8807.03125 28307.291667 8582.8125 C 28695.572917 8358.333333 29174.21875 8358.333333 29562.760417 8582.8125 C 29951.302083 8807.03125 30190.625 9221.354167 30190.625 9670.052083 Z M 30190.625 9670.052083 " transform="matrix(0.015, 0, 0, 0.015, 0, 0)"/>
<path fill="none" stroke-width="90" stroke-linecap="round" stroke-linejoin="round" stroke="rgb(0%, 0%, 0%)" stroke-opacity="1" stroke-miterlimit="10" d="M 34671.09375 13598.958333 L 26992.96875 13598.958333 " transform="matrix(0.015, 0, 0, 0.015, 0, 0)"/>
<path fill="none" stroke-width="90" stroke-linecap="round" stroke-linejoin="round" stroke="rgb(0%, 0%, 0%)" stroke-opacity="1" stroke-miterlimit="10" d="M 34671.09375 7728.125 L 26992.96875 7728.125 " transform="matrix(0.015, 0, 0, 0.015, 0, 0)"/>
<path fill="none" stroke-width="90" stroke-linecap="round" stroke-linejoin="round" stroke="rgb(0%, 0%, 0%)" stroke-opacity="1" stroke-miterlimit="10" d="M 34671.09375 6607.03125 L 26992.96875 6607.03125 " transform="matrix(0.015, 0, 0, 0.015, 0, 0)"/>
<path fill="none" stroke-width="90" stroke-linecap="round" stroke-linejoin="round" stroke="rgb(0%, 0%, 0%)" stroke-opacity="1" stroke-miterlimit="10" d="M 34671.09375 6189.0625 L 26992.96875 6189.0625 " transform="matrix(0.015, 0, 0, 0.015, 0, 0)"/>
<path fill="none" stroke-width="90" stroke-linecap="round" stroke-linejoin="round" stroke="rgb(0%, 0%, 0%)" stroke-opacity="1" stroke-miterlimit="10" d="M 26992.96875 13598.958333 L 26992.96875 6189.0625 " transform="matrix(0.015, 0, 0, 0.015, 0, 0)"/>
<path fill="none" stroke-width="149" stroke-linecap="round" stroke-linejoin="round" stroke="rgb(0%, 0%, 0%)" stroke-opacity="1" stroke-miterlimit="10" d="M 26563.541667 6949.479167 L 25424.479167 6949.479167 " transform="matrix(0.015, 0, 0, 0.015, 0, 0)"/>
<path fill="none" stroke-width="90" stroke-linecap="round" stroke-linejoin="round" stroke="rgb(0%, 0%, 0%)" stroke-opacity="1" stroke-miterlimit="10" d="M 25180.989583 9139.0625 L 25180.989583 12978.125 " transform="matrix(0.015, 0, 0, 0.015, 0, 0)"/>
<path fill="none" stroke-width="90" stroke-linecap="round" stroke-linejoin="round" stroke="rgb(0%, 0%, 0%)" stroke-opacity="1" stroke-miterlimit="10" d="M 23195.052083 7196.875 L 24188.020833 7196.875 " transform="matrix(0.015, 0, 0, 0.015, 0, 0)"/>
<path fill="none" stroke-width="90" stroke-linecap="round" stroke-linejoin="round" stroke="rgb(0%, 0%, 0%)" stroke-opacity="1" stroke-miterlimit="10" d="M 23195.052083 8190.104167 L 23195.052083 7196.875 " transform="matrix(0.015, 0, 0, 0.015, 0, 0)"/>
<path fill="none" stroke-width="90" stroke-linecap="round" stroke-linejoin="round" stroke="rgb(0%, 0%, 0%)" stroke-opacity="1" stroke-miterlimit="10" d="M 23195.052083 9139.0625 L 23195.052083 12978.125 " transform="matrix(0.015, 0, 0, 0.015, 0, 0)"/>
<path fill="none" stroke-width="90" stroke-linecap="round" stroke-linejoin="round" stroke="rgb(0%, 0%, 0%)" stroke-opacity="1" stroke-miterlimit="10" d="M 23195.052083 9139.0625 L 25180.989583 9139.0625 " transform="matrix(0.015, 0, 0, 0.015, 0, 0)"/>
<path fill="none" stroke-width="90" stroke-linecap="round" stroke-linejoin="round" stroke="rgb(0%, 0%, 0%)" stroke-opacity="1" stroke-miterlimit="10" d="M 23195.052083 12978.125 L 25180.989583 12978.125 " transform="matrix(0.015, 0, 0, 0.015, 0, 0)"/>
<path fill="none" stroke-width="90" stroke-linecap="round" stroke-linejoin="round" stroke="rgb(0%, 0%, 0%)" stroke-opacity="1" stroke-miterlimit="10" d="M 28135.9375 10621.875 L 28161.979167 10595.052083 " transform="matrix(0.015, 0, 0, 0.015, 0, 0)"/>
<path fill="none" stroke-width="90" stroke-linecap="round" stroke-linejoin="round" stroke="rgb(0%, 0%, 0%)" stroke-opacity="1" stroke-miterlimit="10" d="M 27982.03125 10467.96875 L 28017.96875 10434.114583 " transform="matrix(0.015, 0, 0, 0.015, 0, 0)"/>
<path fill="none" stroke-width="90" stroke-linecap="round" stroke-linejoin="round" stroke="rgb(0%, 0%, 0%)" stroke-opacity="1" stroke-miterlimit="10" d="M 29851.041667 8905.989583 L 29885.9375 8871.09375 " transform="matrix(0.015, 0, 0, 0.015, 0, 0)"/>
<path fill="none" stroke-width="90" stroke-linecap="round" stroke-linejoin="round" stroke="rgb(0%, 0%, 0%)" stroke-opacity="1" stroke-miterlimit="10" d="M 29707.03125 8744.010417 L 29733.072917 8717.96875 " transform="matrix(0.015, 0, 0, 0.015, 0, 0)"/>
<path fill="none" stroke-width="90" stroke-linecap="round" stroke-linejoin="round" stroke="rgb(0%, 0%, 0%)" stroke-opacity="1" stroke-miterlimit="10" d="M 27365.104167 27625 L 35042.96875 27625 " transform="matrix(0.015, 0, 0, 0.015, 0, 0)"/>
<path fill="none" stroke-width="90" stroke-linecap="round" stroke-linejoin="round" stroke="rgb(0%, 0%, 0%)" stroke-opacity="1" stroke-miterlimit="10" d="M 28160.677083 26192.708333 C 28016.145833 25867.708333 28016.145833 25496.614583 28160.9375 25171.614583 " transform="matrix(0.015, 0, 0, 0.015, 0, 0)"/>
<path fill="none" stroke-width="90" stroke-linecap="round" stroke-linejoin="round" stroke="rgb(0%, 0%, 0%)" stroke-opacity="1" stroke-miterlimit="10" d="M 29328.645833 26936.979167 C 29145.3125 26940.104167 28963.541667 26903.125 28796.09375 26828.645833 " transform="matrix(0.015, 0, 0, 0.015, 0, 0)"/>
<path fill="none" stroke-width="90" stroke-linecap="round" stroke-linejoin="round" stroke="rgb(0%, 0%, 0%)" stroke-opacity="1" stroke-miterlimit="10" d="M 29817.96875 26828.90625 C 29657.291667 26900.520833 29483.333333 26937.239583 29307.552083 26937.239583 " transform="matrix(0.015, 0, 0, 0.015, 0, 0)"/>
<path fill="none" stroke-width="90" stroke-linecap="round" stroke-linejoin="round" stroke="rgb(0%, 0%, 0%)" stroke-opacity="1" stroke-miterlimit="10" d="M 30453.90625 25171.875 C 30598.4375 25496.875 30598.4375 25867.96875 30453.645833 26192.96875 " transform="matrix(0.015, 0, 0, 0.015, 0, 0)"/>
<path fill="none" stroke-width="90" stroke-linecap="round" stroke-linejoin="round" stroke="rgb(0%, 0%, 0%)" stroke-opacity="1" stroke-miterlimit="10" d="M 30234.895833 13852.083333 L 26769.010417 13852.083333 " transform="matrix(0.015, 0, 0, 0.015, 0, 0)"/>
<path fill="none" stroke-width="90" stroke-linecap="round" stroke-linejoin="round" stroke="rgb(0%, 0%, 0%)" stroke-opacity="1" stroke-miterlimit="10" d="M 29107.03125 13852.083333 L 29107.03125 21500 " transform="matrix(0.015, 0, 0, 0.015, 0, 0)"/>
<path fill="none" stroke-width="90" stroke-linecap="round" stroke-linejoin="round" stroke="rgb(0%, 0%, 0%)" stroke-opacity="1" stroke-miterlimit="10" d="M 30234.895833 16294.010417 L 29107.03125 16294.010417 " transform="matrix(0.015, 0, 0, 0.015, 0, 0)"/>
<path fill="none" stroke-width="90" stroke-linecap="round" stroke-linejoin="round" stroke="rgb(0%, 0%, 0%)" stroke-opacity="1" stroke-miterlimit="10" d="M 30234.895833 21500 L 26769.010417 21500 " transform="matrix(0.015, 0, 0, 0.015, 0, 0)"/>
<path fill="none" stroke-width="90" stroke-linecap="round" stroke-linejoin="round" stroke="rgb(0%, 0%, 0%)" stroke-opacity="1" stroke-miterlimit="10" d="M 27184.895833 28790.104167 L 27184.895833 29341.927083 " transform="matrix(0.015, 0, 0, 0.015, 0, 0)"/>
<path fill="none" stroke-width="90" stroke-linecap="round" stroke-linejoin="round" stroke="rgb(0%, 0%, 0%)" stroke-opacity="1" stroke-miterlimit="10" d="M 27184.895833 29341.927083 L 27559.114583 29341.927083 " transform="matrix(0.015, 0, 0, 0.015, 0, 0)"/>
<path fill="none" stroke-width="90" stroke-linecap="round" stroke-linejoin="round" stroke="rgb(0%, 0%, 0%)" stroke-opacity="1" stroke-miterlimit="10" d="M 27365.104167 21753.125 L 27365.104167 29163.020833 " transform="matrix(0.015, 0, 0, 0.015, 0, 0)"/>
<path fill="none" stroke-width="90" stroke-linecap="round" stroke-linejoin="round" stroke="rgb(0%, 0%, 0%)" stroke-opacity="1" stroke-miterlimit="10" d="M 27365.104167 28745.052083 L 35042.96875 28745.052083 " transform="matrix(0.015, 0, 0, 0.015, 0, 0)"/>
<path fill="none" stroke-width="90" stroke-linecap="round" stroke-linejoin="round" stroke="rgb(0%, 0%, 0%)" stroke-opacity="1" stroke-miterlimit="10" d="M 27365.104167 29163.020833 L 35042.96875 29163.020833 " transform="matrix(0.015, 0, 0, 0.015, 0, 0)"/>
<path fill="none" stroke-width="90" stroke-linecap="round" stroke-linejoin="round" stroke="rgb(0%, 0%, 0%)" stroke-opacity="1" stroke-miterlimit="10" d="M 35042.96875 21753.125 L 35042.96875 29163.020833 " transform="matrix(0.015, 0, 0, 0.015, 0, 0)"/>
<path fill="none" stroke-width="90" stroke-linecap="round" stroke-linejoin="round" stroke="rgb(0%, 0%, 0%)" stroke-opacity="1" stroke-miterlimit="10" d="M 28797.395833 24535.677083 C 29122.395833 24391.145833 29493.489583 24391.145833 29818.489583 24535.9375 " transform="matrix(0.015, 0, 0, 0.015, 0, 0)"/>
<path fill="none" stroke-width="90" stroke-linecap="round" stroke-linejoin="round" stroke="rgb(0%, 0%, 0%)" stroke-opacity="1" stroke-miterlimit="10" d="M 34356.510417 25682.03125 C 34356.510417 26130.46875 34117.1875 26545.052083 33728.645833 26769.270833 C 33340.364583 26993.489583 32861.71875 26993.489583 32473.177083 26769.270833 C 32084.895833 26545.052083 31845.572917 26130.46875 31845.572917 25682.03125 C 31845.572917 25233.333333 32084.895833 24819.010417 32473.177083 24594.791667 C 32861.71875 24370.3125 33340.364583 24370.3125 33728.645833 24594.791667 C 34117.1875 24819.010417 34356.510417 25233.333333 34356.510417 25682.03125 Z M 34356.510417 25682.03125 " transform="matrix(0.015, 0, 0, 0.015, 0, 0)"/>
<path fill="none" stroke-width="90" stroke-linecap="round" stroke-linejoin="round" stroke="rgb(0%, 0%, 0%)" stroke-opacity="1" stroke-miterlimit="10" d="M 32184.895833 26446.875 L 32150 26480.989583 " transform="matrix(0.015, 0, 0, 0.015, 0, 0)"/>
<path fill="none" stroke-width="90" stroke-linecap="round" stroke-linejoin="round" stroke="rgb(0%, 0%, 0%)" stroke-opacity="1" stroke-miterlimit="10" d="M 32328.90625 26608.072917 L 32303.125 26634.114583 " transform="matrix(0.015, 0, 0, 0.015, 0, 0)"/>
<path fill="none" stroke-width="90" stroke-linecap="round" stroke-linejoin="round" stroke="rgb(0%, 0%, 0%)" stroke-opacity="1" stroke-miterlimit="10" d="M 33900 24729.947917 L 33873.958333 24757.03125 " transform="matrix(0.015, 0, 0, 0.015, 0, 0)"/>
<path fill="none" stroke-width="90" stroke-linecap="round" stroke-linejoin="round" stroke="rgb(0%, 0%, 0%)" stroke-opacity="1" stroke-miterlimit="10" d="M 34053.90625 24884.114583 L 34017.96875 24917.96875 " transform="matrix(0.015, 0, 0, 0.015, 0, 0)"/>
<path fill="none" stroke-width="90" stroke-linecap="round" stroke-linejoin="round" stroke="rgb(0%, 0%, 0%)" stroke-opacity="1" stroke-miterlimit="10" d="M 26769.010417 13852.083333 L 26769.010417 21500 " transform="matrix(0.015, 0, 0, 0.015, 0, 0)"/>
<path fill="none" stroke-width="112" stroke-linecap="round" stroke-linejoin="round" stroke="rgb(0%, 0%, 0%)" stroke-opacity="1" stroke-miterlimit="10" d="M 23901.041667 21141.927083 L 23153.90625 21141.927083 L 23153.90625 20857.03125 L 23190.104167 20785.9375 L 23225 20751.041667 L 23296.09375 20715.104167 L 23403.125 20715.104167 L 23473.958333 20751.041667 L 23509.895833 20785.9375 L 23545.052083 20857.03125 L 23545.052083 21141.927083 " transform="matrix(0.015, 0, 0, 0.015, 0, 0)"/>
<path fill="none" stroke-width="112" stroke-linecap="round" stroke-linejoin="round" stroke="rgb(0%, 0%, 0%)" stroke-opacity="1" stroke-miterlimit="10" d="M 23901.041667 20395.052083 L 23153.90625 20395.052083 L 23901.041667 19967.96875 L 23153.90625 19967.96875 " transform="matrix(0.015, 0, 0, 0.015, 0, 0)"/>
<path fill="none" stroke-width="112" stroke-linecap="round" stroke-linejoin="round" stroke="rgb(0%, 0%, 0%)" stroke-opacity="1" stroke-miterlimit="10" d="M 23901.041667 19613.020833 L 23153.90625 19613.020833 L 23153.90625 19328.125 L 23190.104167 19257.03125 L 23225 19221.09375 L 23296.09375 19185.9375 L 23403.125 19185.9375 L 23473.958333 19221.09375 L 23509.895833 19257.03125 L 23545.052083 19328.125 L 23545.052083 19613.020833 " transform="matrix(0.015, 0, 0, 0.015, 0, 0)"/>
<path fill="none" stroke-width="90" stroke-linecap="round" stroke-linejoin="round" stroke="rgb(0%, 0%, 0%)" stroke-opacity="1" stroke-miterlimit="10" d="M 22978.90625 21500 L 26445.052083 21500 " transform="matrix(0.015, 0, 0, 0.015, 0, 0)"/>
<path fill="none" stroke-width="90" stroke-linecap="round" stroke-linejoin="round" stroke="rgb(0%, 0%, 0%)" stroke-opacity="1" stroke-miterlimit="10" d="M 22978.90625 21500 L 22978.90625 13852.083333 " transform="matrix(0.015, 0, 0, 0.015, 0, 0)"/>
<path fill="none" stroke-width="90" stroke-linecap="round" stroke-linejoin="round" stroke="rgb(0%, 0%, 0%)" stroke-opacity="1" stroke-miterlimit="10" d="M 22978.90625 19058.072917 L 24107.03125 19058.072917 " transform="matrix(0.015, 0, 0, 0.015, 0, 0)"/>
<path fill="none" stroke-width="90" stroke-linecap="round" stroke-linejoin="round" stroke="rgb(0%, 0%, 0%)" stroke-opacity="1" stroke-miterlimit="10" d="M 24107.03125 21500 L 24107.03125 13852.083333 " transform="matrix(0.015, 0, 0, 0.015, 0, 0)"/>
<path fill="none" stroke-width="90" stroke-linecap="round" stroke-linejoin="round" stroke="rgb(0%, 0%, 0%)" stroke-opacity="1" stroke-miterlimit="10" d="M 26445.052083 21500 L 26445.052083 13852.083333 " transform="matrix(0.015, 0, 0, 0.015, 0, 0)"/>
<path fill="none" stroke-width="90" stroke-linecap="round" stroke-linejoin="round" stroke="rgb(0%, 0%, 0%)" stroke-opacity="1" stroke-miterlimit="10" d="M 22978.90625 16292.96875 L 24107.03125 16292.96875 " transform="matrix(0.015, 0, 0, 0.015, 0, 0)"/>
<path fill="none" stroke-width="90" stroke-linecap="round" stroke-linejoin="round" stroke="rgb(0%, 0%, 0%)" stroke-opacity="1" stroke-miterlimit="10" d="M 22978.90625 13852.083333 L 26445.052083 13852.083333 " transform="matrix(0.015, 0, 0, 0.015, 0, 0)"/>
<path fill="none" stroke-width="75" stroke-linecap="round" stroke-linejoin="round" stroke="rgb(0%, 0%, 0%)" stroke-opacity="1" stroke-miterlimit="10" d="M 23809.114583 29059.114583 L 38607.03125 29059.114583 " transform="matrix(0.015, 0, 0, 0.015, 0, 0)"/>
<path fill="none" stroke-width="75" stroke-linecap="round" stroke-linejoin="round" stroke="rgb(0%, 0%, 0%)" stroke-opacity="1" stroke-miterlimit="10" d="M 38607.552083 6103.90625 C 39060.416667 6103.90625 39494.791667 6283.854167 39814.84375 6604.166667 C 40135.15625 6924.21875 40315.104167 7358.59375 40315.104167 7811.458333 " transform="matrix(0.015, 0, 0, 0.015, 0, 0)"/>
<path fill="none" stroke-width="75" stroke-linecap="round" stroke-linejoin="round" stroke="rgb(0%, 0%, 0%)" stroke-opacity="1" stroke-miterlimit="10" d="M 40315.104167 27352.604167 C 40315.104167 27805.46875 40135.15625 28239.583333 39814.84375 28559.895833 C 39494.791667 28880.208333 39060.416667 29059.895833 38607.552083 29059.895833 " transform="matrix(0.015, 0, 0, 0.015, 0, 0)"/>
<path fill="none" stroke-width="75" stroke-linecap="round" stroke-linejoin="round" stroke="rgb(0%, 0%, 0%)" stroke-opacity="1" stroke-miterlimit="10" d="M 23809.375 29059.895833 C 23356.770833 29059.895833 22922.395833 28880.208333 22602.083333 28559.895833 C 22281.770833 28239.583333 22102.083333 27805.46875 22102.083333 27352.604167 " transform="matrix(0.015, 0, 0, 0.015, 0, 0)"/>
<path fill="none" stroke-width="75" stroke-linecap="round" stroke-linejoin="round" stroke="rgb(0%, 0%, 0%)" stroke-opacity="1" stroke-miterlimit="10" d="M 22101.041667 7810.9375 L 22101.041667 27352.083333 " transform="matrix(0.015, 0, 0, 0.015, 0, 0)"/>
<path fill="none" stroke-width="75" stroke-linecap="round" stroke-linejoin="round" stroke="rgb(0%, 0%, 0%)" stroke-opacity="1" stroke-miterlimit="10" d="M 38607.03125 6103.125 L 23809.114583 6103.125 " transform="matrix(0.015, 0, 0, 0.015, 0, 0)"/>
<path fill="none" stroke-width="75" stroke-linecap="round" stroke-linejoin="round" stroke="rgb(0%, 0%, 0%)" stroke-opacity="1" stroke-miterlimit="10" d="M 22102.083333 7811.458333 C 22102.083333 7358.59375 22281.770833 6924.21875 22602.083333 6604.166667 C 22922.395833 6283.854167 23356.770833 6103.90625 23809.375 6103.90625 " transform="matrix(0.015, 0, 0, 0.015, 0, 0)"/>
<path fill-rule="nonzero" fill="rgb(0%, 0%, 0%)" fill-opacity="1" d="M 582.800781 131.386719 C 582.800781 137.792969 579.382812 143.710938 573.835938 146.914062 C 568.289062 150.117188 561.453125 150.117188 555.902344 146.914062 C 550.355469 143.710938 546.9375 137.792969 546.9375 131.386719 C 546.9375 124.976562 550.355469 119.058594 555.902344 115.855469 C 561.453125 112.652344 568.289062 112.652344 573.835938 115.855469 C 579.382812 119.058594 582.800781 124.976562 582.800781 131.386719 Z M 582.800781 131.386719 "/>
<path fill-rule="nonzero" fill="rgb(0%, 0%, 0%)" fill-opacity="1" d="M 389.289062 396.046875 C 389.289062 402.453125 385.871094 408.371094 380.320312 411.574219 C 374.773438 414.777344 367.9375 414.777344 362.390625 411.574219 C 356.839844 408.371094 353.421875 402.453125 353.421875 396.046875 C 353.421875 389.636719 356.839844 383.71875 362.390625 380.515625 C 367.9375 377.3125 374.773438 377.3125 380.320312 380.515625 C 385.871094 383.71875 389.289062 389.636719 389.289062 396.046875 Z M 389.289062 396.046875 "/>
<path fill-rule="nonzero" fill="rgb(0%, 0%, 0%)" fill-opacity="1" d="M 582.800781 396.046875 C 582.800781 402.453125 579.382812 408.371094 573.835938 411.574219 C 568.289062 414.777344 561.453125 414.777344 555.902344 411.574219 C 550.355469 408.371094 546.9375 402.453125 546.9375 396.046875 C 546.9375 389.636719 550.355469 383.71875 555.902344 380.515625 C 561.453125 377.3125 568.289062 377.3125 573.835938 380.515625 C 579.382812 383.71875 582.800781 389.636719 582.800781 396.046875 Z M 582.800781 396.046875 "/>
<path fill-rule="nonzero" fill="rgb(0%, 0%, 0%)" fill-opacity="1" d="M 423.066406 236.683594 C 423.066406 238.890625 421.890625 240.929688 419.980469 242.03125 C 418.070312 243.132812 415.71875 243.132812 413.808594 242.03125 C 411.898438 240.929688 410.722656 238.890625 410.722656 236.683594 C 410.722656 234.480469 411.898438 232.441406 413.808594 231.339844 C 415.71875 230.238281 418.070312 230.238281 419.980469 231.339844 C 421.890625 232.441406 423.066406 234.480469 423.066406 236.683594 Z M 423.066406 236.683594 "/>
<path fill-rule="nonzero" fill="rgb(0%, 0%, 0%)" fill-opacity="1" d="M 423.066406 265.140625 C 423.066406 267.34375 421.890625 269.382812 419.980469 270.484375 C 418.070312 271.589844 415.71875 271.589844 413.808594 270.484375 C 411.898438 269.382812 410.722656 267.34375 410.722656 265.140625 C 410.722656 262.933594 411.898438 260.898438 413.808594 259.792969 C 415.71875 258.691406 418.070312 258.691406 419.980469 259.792969 C 421.890625 260.898438 423.066406 262.933594 423.066406 265.140625 Z M 423.066406 265.140625 "/>
<path fill-rule="nonzero" fill="rgb(0%, 0%, 0%)" fill-opacity="1" d="M 423.066406 293.59375 C 423.066406 295.800781 421.890625 297.839844 419.980469 298.941406 C 418.070312 300.042969 415.71875 300.042969 413.808594 298.941406 C 411.898438 297.839844 410.722656 295.800781 410.722656 293.59375 C 410.722656 291.390625 411.898438 289.351562 413.808594 288.25 C 415.71875 287.148438 418.070312 287.148438 419.980469 288.25 C 421.890625 289.351562 423.066406 291.390625 423.066406 293.59375 Z M 423.066406 293.59375 "/>
<path fill-rule="nonzero" fill="rgb(0%, 0%, 0%)" fill-opacity="1" d="M 503.8125 385.230469 C 503.8125 387.835938 502.421875 390.246094 500.164062 391.550781 C 497.90625 392.851562 495.125 392.851562 492.867188 391.550781 C 490.609375 390.246094 489.21875 387.835938 489.21875 385.230469 C 489.21875 382.621094 490.609375 380.214844 492.867188 378.910156 C 495.125 377.605469 497.90625 377.605469 500.164062 378.910156 C 502.421875 380.214844 503.8125 382.621094 503.8125 385.230469 Z M 503.8125 385.230469 "/>
<path fill-rule="nonzero" fill="rgb(0%, 0%, 0%)" fill-opacity="1" d="M 446.902344 385.230469 C 446.902344 387.835938 445.511719 390.246094 443.253906 391.550781 C 440.996094 392.851562 438.214844 392.851562 435.957031 391.550781 C 433.699219 390.246094 432.308594 387.835938 432.308594 385.230469 C 432.308594 382.621094 433.699219 380.214844 435.957031 378.910156 C 438.214844 377.605469 440.996094 377.605469 443.253906 378.910156 C 445.511719 380.214844 446.902344 382.621094 446.902344 385.230469 Z M 446.902344 385.230469 "/>
<path fill-rule="nonzero" fill="rgb(0%, 0%, 0%)" fill-opacity="1" d="M 387.488281 293.59375 C 387.488281 295.800781 386.3125 297.839844 384.402344 298.941406 C 382.492188 300.042969 380.136719 300.042969 378.230469 298.941406 C 376.320312 297.839844 375.140625 295.800781 375.140625 293.59375 C 375.140625 291.390625 376.320312 289.351562 378.230469 288.25 C 380.136719 287.148438 382.492188 287.148438 384.402344 288.25 C 386.3125 289.351562 387.488281 291.390625 387.488281 293.59375 Z M 387.488281 293.59375 "/>
<path fill-rule="nonzero" fill="rgb(0%, 0%, 0%)" fill-opacity="1" d="M 387.488281 265.140625 C 387.488281 267.34375 386.3125 269.382812 384.402344 270.484375 C 382.492188 271.589844 380.136719 271.589844 378.230469 270.484375 C 376.320312 269.382812 375.140625 267.34375 375.140625 265.140625 C 375.140625 262.933594 376.320312 260.898438 378.230469 259.792969 C 380.136719 258.691406 382.492188 258.691406 384.402344 259.792969 C 386.3125 260.898438 387.488281 262.933594 387.488281 265.140625 Z M 387.488281 265.140625 "/>
<path fill-rule="nonzero" fill="rgb(0%, 0%, 0%)" fill-opacity="1" d="M 387.488281 236.683594 C 387.488281 238.890625 386.3125 240.929688 384.402344 242.03125 C 382.492188 243.132812 380.136719 243.132812 378.230469 242.03125 C 376.320312 240.929688 375.140625 238.890625 375.140625 236.683594 C 375.140625 234.480469 376.320312 232.441406 378.230469 231.339844 C 380.136719 230.238281 382.492188 230.238281 384.402344 231.339844 C 386.3125 232.441406 387.488281 234.480469 387.488281 236.683594 Z M 387.488281 236.683594 "/>
<path fill-rule="nonzero" fill="rgb(0%, 0%, 0%)" fill-opacity="1" d="M 441.324219 145.050781 C 441.324219 147.65625 439.929688 150.066406 437.671875 151.371094 C 435.414062 152.671875 432.632812 152.671875 430.375 151.371094 C 428.117188 150.066406 426.726562 147.65625 426.726562 145.050781 C 426.726562 142.441406 428.117188 140.035156 430.375 138.730469 C 432.632812 137.425781 435.414062 137.425781 437.671875 138.730469 C 439.929688 140.035156 441.324219 142.441406 441.324219 145.050781 Z M 441.324219 145.050781 "/>
<path fill-rule="nonzero" fill="rgb(0%, 0%, 0%)" fill-opacity="1" d="M 368.421875 122.851562 C 368.421875 124.851562 367.355469 126.699219 365.621094 127.703125 C 363.886719 128.703125 361.753906 128.703125 360.019531 127.703125 C 358.285156 126.699219 357.21875 124.851562 357.21875 122.851562 C 357.21875 120.847656 358.285156 119 360.019531 118 C 361.753906 116.996094 363.886719 116.996094 365.621094 118 C 367.355469 119 368.421875 120.847656 368.421875 122.851562 Z M 368.421875 122.851562 "/>
<path fill-rule="nonzero" fill="rgb(0%, 0%, 0%)" fill-opacity="1" d="M 368.421875 151.304688 C 368.421875 153.304688 367.355469 155.15625 365.621094 156.15625 C 363.886719 157.15625 361.753906 157.15625 360.019531 156.15625 C 358.285156 155.15625 357.21875 153.304688 357.21875 151.304688 C 357.21875 149.304688 358.285156 147.453125 360.019531 146.453125 C 361.753906 145.453125 363.886719 145.453125 365.621094 146.453125 C 367.355469 147.453125 368.421875 149.304688 368.421875 151.304688 Z M 368.421875 151.304688 "/>
<path fill-rule="nonzero" fill="rgb(0%, 0%, 0%)" fill-opacity="1" d="M 368.421875 179.761719 C 368.421875 181.761719 367.355469 183.609375 365.621094 184.613281 C 363.886719 185.613281 361.753906 185.613281 360.019531 184.613281 C 358.285156 183.609375 357.21875 181.761719 357.21875 179.761719 C 357.21875 177.757812 358.285156 175.910156 360.019531 174.90625 C 361.753906 173.90625 363.886719 173.90625 365.621094 174.90625 C 367.355469 175.910156 368.421875 177.757812 368.421875 179.761719 Z M 368.421875 179.761719 "/>
<path fill-rule="nonzero" fill="rgb(0%, 0%, 0%)" fill-opacity="1" d="M 498.234375 145.050781 C 498.234375 147.65625 496.839844 150.066406 494.582031 151.371094 C 492.324219 152.671875 489.542969 152.671875 487.285156 151.371094 C 485.027344 150.066406 483.636719 147.65625 483.636719 145.050781 C 483.636719 142.441406 485.027344 140.035156 487.285156 138.730469 C 489.542969 137.425781 492.324219 137.425781 494.582031 138.730469 C 496.839844 140.035156 498.234375 142.441406 498.234375 145.050781 Z M 498.234375 145.050781 "/>
<path fill-rule="nonzero" fill="rgb(0%, 0%, 0%)" fill-opacity="1" d="M 479.976562 236.683594 C 479.976562 238.890625 478.800781 240.929688 476.890625 242.03125 C 474.980469 243.132812 472.628906 243.132812 470.71875 242.03125 C 468.808594 240.929688 467.632812 238.890625 467.632812 236.683594 C 467.632812 234.480469 468.808594 232.441406 470.71875 231.339844 C 472.628906 230.238281 474.980469 230.238281 476.890625 231.339844 C 478.800781 232.441406 479.976562 234.480469 479.976562 236.683594 Z M 479.976562 236.683594 "/>
<path fill-rule="nonzero" fill="rgb(0%, 0%, 0%)" fill-opacity="1" d="M 479.976562 265.140625 C 479.976562 267.34375 478.800781 269.382812 476.890625 270.484375 C 474.980469 271.589844 472.628906 271.589844 470.71875 270.484375 C 468.808594 269.382812 467.632812 267.34375 467.632812 265.140625 C 467.632812 262.933594 468.808594 260.898438 470.71875 259.792969 C 472.628906 258.691406 474.980469 258.691406 476.890625 259.792969 C 478.800781 260.898438 479.976562 262.933594 479.976562 265.140625 Z M 479.976562 265.140625 "/>
<path fill-rule="nonzero" fill="rgb(0%, 0%, 0%)" fill-opacity="1" d="M 479.976562 293.59375 C 479.976562 295.800781 478.800781 297.839844 476.890625 298.941406 C 474.980469 300.042969 472.628906 300.042969 470.71875 298.941406 C 468.808594 297.839844 467.632812 295.800781 467.632812 293.59375 C 467.632812 291.390625 468.808594 289.351562 470.71875 288.25 C 472.628906 287.148438 474.980469 287.148438 476.890625 288.25 C 478.800781 289.351562 479.976562 291.390625 479.976562 293.59375 Z M 479.976562 293.59375 "/>
<path fill-rule="nonzero" fill="rgb(0%, 0%, 0%)" fill-opacity="1" d="M 572.46875 293.59375 C 572.46875 295.800781 571.292969 297.839844 569.382812 298.941406 C 567.472656 300.042969 565.117188 300.042969 563.207031 298.941406 C 561.300781 297.839844 560.121094 295.800781 560.121094 293.59375 C 560.121094 291.390625 561.300781 289.351562 563.207031 288.25 C 565.117188 287.148438 567.472656 287.148438 569.382812 288.25 C 571.292969 289.351562 572.46875 291.390625 572.46875 293.59375 Z M 572.46875 293.59375 "/>
<path fill-rule="nonzero" fill="rgb(0%, 0%, 0%)" fill-opacity="1" d="M 572.46875 265.140625 C 572.46875 267.34375 571.292969 269.382812 569.382812 270.484375 C 567.472656 271.589844 565.117188 271.589844 563.207031 270.484375 C 561.300781 269.382812 560.121094 267.34375 560.121094 265.140625 C 560.121094 262.933594 561.300781 260.898438 563.207031 259.792969 C 565.117188 258.691406 567.472656 258.691406 569.382812 259.792969 C 571.292969 260.898438 572.46875 262.933594 572.46875 265.140625 Z M 572.46875 265.140625 "/>
<path fill-rule="nonzero" fill="rgb(0%, 0%, 0%)" fill-opacity="1" d="M 572.46875 236.683594 C 572.46875 238.890625 571.292969 240.929688 569.382812 242.03125 C 567.472656 243.132812 565.117188 243.132812 563.207031 242.03125 C 561.300781 240.929688 560.121094 238.890625 560.121094 236.683594 C 560.121094 234.480469 561.300781 232.441406 563.207031 231.339844 C 565.117188 230.238281 567.472656 230.238281 569.382812 231.339844 C 571.292969 232.441406 572.46875 234.480469 572.46875 236.683594 Z M 572.46875 236.683594 "/>
<path fill="none" stroke-width="112" stroke-linecap="round" stroke-linejoin="round" stroke="rgb(0%, 0%, 0%)" stroke-opacity="1" stroke-miterlimit="10" d="M 15571.875 8494.010417 L 15678.125 8529.947917 L 15855.989583 8529.947917 L 15927.083333 8494.010417 L 15963.020833 8459.114583 L 15998.958333 8386.979167 L 15998.958333 8315.885417 L 15963.020833 8245.052083 L 15927.083333 8209.895833 L 15855.989583 8173.958333 L 15714.0625 8138.020833 L 15642.96875 8103.125 L 15607.03125 8066.927083 L 15571.875 7996.09375 L 15571.875 7925 L 15607.03125 7853.90625 L 15642.96875 7817.96875 L 15714.0625 7783.072917 L 15891.927083 7783.072917 L 15998.958333 7817.96875 " transform="matrix(0.015, 0, 0, 0.015, 0, 0)"/>
<path fill="none" stroke-width="112" stroke-linecap="round" stroke-linejoin="round" stroke="rgb(0%, 0%, 0%)" stroke-opacity="1" stroke-miterlimit="10" d="M 16319.010417 8529.947917 L 16319.010417 8032.03125 " transform="matrix(0.015, 0, 0, 0.015, 0, 0)"/>
<path fill="none" stroke-width="112" stroke-linecap="round" stroke-linejoin="round" stroke="rgb(0%, 0%, 0%)" stroke-opacity="1" stroke-miterlimit="10" d="M 16319.010417 7783.072917 L 16283.072917 7817.96875 L 16319.010417 7853.90625 L 16353.90625 7817.96875 L 16319.010417 7783.072917 L 16319.010417 7853.90625 " transform="matrix(0.015, 0, 0, 0.015, 0, 0)"/>
<path fill="none" stroke-width="112" stroke-linecap="round" stroke-linejoin="round" stroke="rgb(0%, 0%, 0%)" stroke-opacity="1" stroke-miterlimit="10" d="M 16995.052083 8032.03125 L 16995.052083 8635.9375 L 16959.114583 8708.072917 L 16922.916667 8742.96875 L 16852.083333 8778.90625 L 16746.09375 8778.90625 L 16673.958333 8742.96875 " transform="matrix(0.015, 0, 0, 0.015, 0, 0)"/>
<path fill="none" stroke-width="112" stroke-linecap="round" stroke-linejoin="round" stroke="rgb(0%, 0%, 0%)" stroke-opacity="1" stroke-miterlimit="10" d="M 16995.052083 8494.010417 L 16922.916667 8529.947917 L 16780.989583 8529.947917 L 16709.895833 8494.010417 L 16673.958333 8459.114583 L 16639.0625 8386.979167 L 16639.0625 8173.958333 L 16673.958333 8103.125 L 16709.895833 8066.927083 L 16780.989583 8032.03125 L 16922.916667 8032.03125 L 16995.052083 8066.927083 " transform="matrix(0.015, 0, 0, 0.015, 0, 0)"/>
<path fill="none" stroke-width="112" stroke-linecap="round" stroke-linejoin="round" stroke="rgb(0%, 0%, 0%)" stroke-opacity="1" stroke-miterlimit="10" d="M 17350 8032.03125 L 17350 8529.947917 " transform="matrix(0.015, 0, 0, 0.015, 0, 0)"/>
<path fill="none" stroke-width="112" stroke-linecap="round" stroke-linejoin="round" stroke="rgb(0%, 0%, 0%)" stroke-opacity="1" stroke-miterlimit="10" d="M 17350 8103.125 L 17385.9375 8066.927083 L 17457.03125 8032.03125 L 17564.0625 8032.03125 L 17634.895833 8066.927083 L 17670.052083 8138.020833 L 17670.052083 8529.947917 " transform="matrix(0.015, 0, 0, 0.015, 0, 0)"/>
<path fill="none" stroke-width="112" stroke-linecap="round" stroke-linejoin="round" stroke="rgb(0%, 0%, 0%)" stroke-opacity="1" stroke-miterlimit="10" d="M 18346.09375 8529.947917 L 18346.09375 8138.020833 L 18310.9375 8066.927083 L 18239.0625 8032.03125 L 18096.875 8032.03125 L 18026.041667 8066.927083 " transform="matrix(0.015, 0, 0, 0.015, 0, 0)"/>
<path fill="none" stroke-width="112" stroke-linecap="round" stroke-linejoin="round" stroke="rgb(0%, 0%, 0%)" stroke-opacity="1" stroke-miterlimit="10" d="M 18346.09375 8494.010417 L 18275 8529.947917 L 18096.875 8529.947917 L 18026.041667 8494.010417 L 17990.104167 8422.916667 L 17990.104167 8352.083333 L 18026.041667 8280.989583 L 18096.875 8245.052083 L 18275 8245.052083 L 18346.09375 8209.895833 " transform="matrix(0.015, 0, 0, 0.015, 0, 0)"/>
<path fill="none" stroke-width="112" stroke-linecap="round" stroke-linejoin="round" stroke="rgb(0%, 0%, 0%)" stroke-opacity="1" stroke-miterlimit="10" d="M 18809.114583 8529.947917 L 18736.979167 8494.010417 L 18702.083333 8422.916667 L 18702.083333 7783.072917 " transform="matrix(0.015, 0, 0, 0.015, 0, 0)"/>
<path fill="none" stroke-width="112" stroke-linecap="round" stroke-linejoin="round" stroke="rgb(0%, 0%, 0%)" stroke-opacity="1" stroke-miterlimit="10" d="M 20053.125 7817.96875 L 19982.03125 7783.072917 L 19876.041667 7783.072917 L 19769.010417 7817.96875 L 19697.916667 7889.0625 L 19661.979167 7960.9375 L 19627.083333 8103.125 L 19627.083333 8209.895833 L 19661.979167 8352.083333 L 19697.916667 8422.916667 L 19769.010417 8494.010417 L 19876.041667 8529.947917 L 19946.875 8529.947917 L 20053.125 8494.010417 L 20089.0625 8459.114583 L 20089.0625 8209.895833 L 19946.875 8209.895833 " transform="matrix(0.015, 0, 0, 0.015, 0, 0)"/>
<path fill="none" stroke-width="112" stroke-linecap="round" stroke-linejoin="round" stroke="rgb(0%, 0%, 0%)" stroke-opacity="1" stroke-miterlimit="10" d="M 20409.114583 8529.947917 L 20409.114583 7783.072917 L 20835.9375 8529.947917 L 20835.9375 7783.072917 " transform="matrix(0.015, 0, 0, 0.015, 0, 0)"/>
<path fill="none" stroke-width="112" stroke-linecap="round" stroke-linejoin="round" stroke="rgb(0%, 0%, 0%)" stroke-opacity="1" stroke-miterlimit="10" d="M 21191.927083 8529.947917 L 21191.927083 7783.072917 L 21369.010417 7783.072917 L 21476.041667 7817.96875 L 21546.875 7889.0625 L 21583.072917 7960.9375 L 21617.96875 8103.125 L 21617.96875 8209.895833 L 21583.072917 8352.083333 L 21546.875 8422.916667 L 21476.041667 8494.010417 L 21369.010417 8529.947917 L 21191.927083 8529.947917 " transform="matrix(0.015, 0, 0, 0.015, 0, 0)"/>
<path fill="none" stroke-width="112" stroke-linecap="round" stroke-linejoin="round" stroke="rgb(0%, 0%, 0%)" stroke-opacity="1" stroke-miterlimit="10" d="M 13627.083333 10427.083333 L 13627.083333 9679.947917 " transform="matrix(0.015, 0, 0, 0.015, 0, 0)"/>
<path fill="none" stroke-width="112" stroke-linecap="round" stroke-linejoin="round" stroke="rgb(0%, 0%, 0%)" stroke-opacity="1" stroke-miterlimit="10" d="M 13983.072917 9928.90625 L 13983.072917 10427.083333 " transform="matrix(0.015, 0, 0, 0.015, 0, 0)"/>
<path fill="none" stroke-width="112" stroke-linecap="round" stroke-linejoin="round" stroke="rgb(0%, 0%, 0%)" stroke-opacity="1" stroke-miterlimit="10" d="M 13983.072917 10000 L 14019.010417 9965.104167 L 14090.104167 9928.90625 L 14196.09375 9928.90625 L 14267.96875 9965.104167 L 14303.125 10035.9375 L 14303.125 10427.083333 " transform="matrix(0.015, 0, 0, 0.015, 0, 0)"/>
<path fill="none" stroke-width="112" stroke-linecap="round" stroke-linejoin="round" stroke="rgb(0%, 0%, 0%)" stroke-opacity="1" stroke-miterlimit="10" d="M 14588.020833 9928.90625 L 14765.885417 10427.083333 L 14942.96875 9928.90625 " transform="matrix(0.015, 0, 0, 0.015, 0, 0)"/>
<path fill="none" stroke-width="112" stroke-linecap="round" stroke-linejoin="round" stroke="rgb(0%, 0%, 0%)" stroke-opacity="1" stroke-miterlimit="10" d="M 15511.979167 10390.885417 L 15440.885417 10427.083333 L 15298.958333 10427.083333 L 15228.125 10390.885417 L 15191.927083 10320.052083 L 15191.927083 10035.9375 L 15228.125 9965.104167 L 15298.958333 9928.90625 L 15440.885417 9928.90625 L 15511.979167 9965.104167 L 15547.916667 10035.9375 L 15547.916667 10107.03125 L 15191.927083 10178.125 " transform="matrix(0.015, 0, 0, 0.015, 0, 0)"/>
<path fill="none" stroke-width="112" stroke-linecap="round" stroke-linejoin="round" stroke="rgb(0%, 0%, 0%)" stroke-opacity="1" stroke-miterlimit="10" d="M 15867.96875 10427.083333 L 15867.96875 9928.90625 " transform="matrix(0.015, 0, 0, 0.015, 0, 0)"/>
<path fill="none" stroke-width="112" stroke-linecap="round" stroke-linejoin="round" stroke="rgb(0%, 0%, 0%)" stroke-opacity="1" stroke-miterlimit="10" d="M 15867.96875 10071.09375 L 15903.90625 10000 L 15939.0625 9965.104167 L 16009.895833 9928.90625 L 16082.03125 9928.90625 " transform="matrix(0.015, 0, 0, 0.015, 0, 0)"/>
<path fill="none" stroke-width="112" stroke-linecap="round" stroke-linejoin="round" stroke="rgb(0%, 0%, 0%)" stroke-opacity="1" stroke-miterlimit="10" d="M 16223.958333 9928.90625 L 16508.072917 9928.90625 " transform="matrix(0.015, 0, 0, 0.015, 0, 0)"/>
<path fill="none" stroke-width="112" stroke-linecap="round" stroke-linejoin="round" stroke="rgb(0%, 0%, 0%)" stroke-opacity="1" stroke-miterlimit="10" d="M 16330.989583 9679.947917 L 16330.989583 10320.052083 L 16365.885417 10390.885417 L 16436.979167 10427.083333 L 16508.072917 10427.083333 " transform="matrix(0.015, 0, 0, 0.015, 0, 0)"/>
<path fill="none" stroke-width="112" stroke-linecap="round" stroke-linejoin="round" stroke="rgb(0%, 0%, 0%)" stroke-opacity="1" stroke-miterlimit="10" d="M 16757.03125 10427.083333 L 16757.03125 9928.90625 " transform="matrix(0.015, 0, 0, 0.015, 0, 0)"/>
<path fill="none" stroke-width="112" stroke-linecap="round" stroke-linejoin="round" stroke="rgb(0%, 0%, 0%)" stroke-opacity="1" stroke-miterlimit="10" d="M 16757.03125 9679.947917 L 16721.875 9715.885417 L 16757.03125 9751.041667 L 16792.96875 9715.885417 L 16757.03125 9679.947917 L 16757.03125 9751.041667 " transform="matrix(0.015, 0, 0, 0.015, 0, 0)"/>
<path fill="none" stroke-width="112" stroke-linecap="round" stroke-linejoin="round" stroke="rgb(0%, 0%, 0%)" stroke-opacity="1" stroke-miterlimit="10" d="M 17113.020833 9928.90625 L 17113.020833 10427.083333 " transform="matrix(0.015, 0, 0, 0.015, 0, 0)"/>
<path fill="none" stroke-width="112" stroke-linecap="round" stroke-linejoin="round" stroke="rgb(0%, 0%, 0%)" stroke-opacity="1" stroke-miterlimit="10" d="M 17113.020833 10000 L 17148.958333 9965.104167 L 17220.052083 9928.90625 L 17326.041667 9928.90625 L 17397.916667 9965.104167 L 17433.072917 10035.9375 L 17433.072917 10427.083333 " transform="matrix(0.015, 0, 0, 0.015, 0, 0)"/>
<path fill="none" stroke-width="112" stroke-linecap="round" stroke-linejoin="round" stroke="rgb(0%, 0%, 0%)" stroke-opacity="1" stroke-miterlimit="10" d="M 18109.114583 9928.90625 L 18109.114583 10534.114583 L 18072.916667 10604.947917 L 18038.020833 10640.104167 L 17966.927083 10676.041667 L 17859.895833 10676.041667 L 17789.0625 10640.104167 " transform="matrix(0.015, 0, 0, 0.015, 0, 0)"/>
<path fill="none" stroke-width="112" stroke-linecap="round" stroke-linejoin="round" stroke="rgb(0%, 0%, 0%)" stroke-opacity="1" stroke-miterlimit="10" d="M 18109.114583 10390.885417 L 18038.020833 10427.083333 L 17896.09375 10427.083333 L 17823.958333 10390.885417 L 17789.0625 10355.989583 L 17753.125 10284.895833 L 17753.125 10071.09375 L 17789.0625 10000 L 17823.958333 9965.104167 L 17896.09375 9928.90625 L 18038.020833 9928.90625 L 18109.114583 9965.104167 " transform="matrix(0.015, 0, 0, 0.015, 0, 0)"/>
<path fill="none" stroke-width="112" stroke-linecap="round" stroke-linejoin="round" stroke="rgb(0%, 0%, 0%)" stroke-opacity="1" stroke-miterlimit="10" d="M 19034.114583 10427.083333 L 19034.114583 9679.947917 " transform="matrix(0.015, 0, 0, 0.015, 0, 0)"/>
<path fill="none" stroke-width="112" stroke-linecap="round" stroke-linejoin="round" stroke="rgb(0%, 0%, 0%)" stroke-opacity="1" stroke-miterlimit="10" d="M 19389.0625 9928.90625 L 19389.0625 10427.083333 " transform="matrix(0.015, 0, 0, 0.015, 0, 0)"/>
<path fill="none" stroke-width="112" stroke-linecap="round" stroke-linejoin="round" stroke="rgb(0%, 0%, 0%)" stroke-opacity="1" stroke-miterlimit="10" d="M 19389.0625 10000 L 19425 9965.104167 L 19496.09375 9928.90625 L 19603.125 9928.90625 L 19673.958333 9965.104167 L 19709.895833 10035.9375 L 19709.895833 10427.083333 " transform="matrix(0.015, 0, 0, 0.015, 0, 0)"/>
<path fill="none" stroke-width="112" stroke-linecap="round" stroke-linejoin="round" stroke="rgb(0%, 0%, 0%)" stroke-opacity="1" stroke-miterlimit="10" d="M 20065.104167 9928.90625 L 20065.104167 10676.041667 " transform="matrix(0.015, 0, 0, 0.015, 0, 0)"/>
<path fill="none" stroke-width="112" stroke-linecap="round" stroke-linejoin="round" stroke="rgb(0%, 0%, 0%)" stroke-opacity="1" stroke-miterlimit="10" d="M 20065.104167 9965.104167 L 20135.9375 9928.90625 L 20278.90625 9928.90625 L 20350 9965.104167 L 20384.895833 10000 L 20421.09375 10071.09375 L 20421.09375 10284.895833 L 20384.895833 10355.989583 L 20350 10390.885417 L 20278.90625 10427.083333 L 20135.9375 10427.083333 L 20065.104167 10390.885417 " transform="matrix(0.015, 0, 0, 0.015, 0, 0)"/>
<path fill="none" stroke-width="112" stroke-linecap="round" stroke-linejoin="round" stroke="rgb(0%, 0%, 0%)" stroke-opacity="1" stroke-miterlimit="10" d="M 21060.9375 9928.90625 L 21060.9375 10427.083333 " transform="matrix(0.015, 0, 0, 0.015, 0, 0)"/>
<path fill="none" stroke-width="112" stroke-linecap="round" stroke-linejoin="round" stroke="rgb(0%, 0%, 0%)" stroke-opacity="1" stroke-miterlimit="10" d="M 20740.885417 9928.90625 L 20740.885417 10320.052083 L 20777.083333 10390.885417 L 20847.916667 10427.083333 L 20953.90625 10427.083333 L 21026.041667 10390.885417 L 21060.9375 10355.989583 " transform="matrix(0.015, 0, 0, 0.015, 0, 0)"/>
<path fill="none" stroke-width="112" stroke-linecap="round" stroke-linejoin="round" stroke="rgb(0%, 0%, 0%)" stroke-opacity="1" stroke-miterlimit="10" d="M 21309.895833 9928.90625 L 21595.052083 9928.90625 " transform="matrix(0.015, 0, 0, 0.015, 0, 0)"/>
<path fill="none" stroke-width="112" stroke-linecap="round" stroke-linejoin="round" stroke="rgb(0%, 0%, 0%)" stroke-opacity="1" stroke-miterlimit="10" d="M 21416.927083 9679.947917 L 21416.927083 10320.052083 L 21452.083333 10390.885417 L 21523.958333 10427.083333 L 21595.052083 10427.083333 " transform="matrix(0.015, 0, 0, 0.015, 0, 0)"/>
<path fill="none" stroke-width="112" stroke-linecap="round" stroke-linejoin="round" stroke="rgb(0%, 0%, 0%)" stroke-opacity="1" stroke-miterlimit="10" d="M 11492.96875 12323.958333 L 11492.96875 11577.083333 L 11920.052083 12323.958333 L 11920.052083 11577.083333 " transform="matrix(0.015, 0, 0, 0.015, 0, 0)"/>
<path fill="none" stroke-width="112" stroke-linecap="round" stroke-linejoin="round" stroke="rgb(0%, 0%, 0%)" stroke-opacity="1" stroke-miterlimit="10" d="M 12382.03125 12323.958333 L 12310.9375 12289.0625 L 12276.041667 12253.125 L 12240.104167 12182.03125 L 12240.104167 11967.96875 L 12276.041667 11896.875 L 12310.9375 11861.979167 L 12382.03125 11826.041667 L 12489.0625 11826.041667 L 12559.895833 11861.979167 L 12596.09375 11896.875 L 12630.989583 11967.96875 L 12630.989583 12182.03125 L 12596.09375 12253.125 L 12559.895833 12289.0625 L 12489.0625 12323.958333 L 12382.03125 12323.958333 " transform="matrix(0.015, 0, 0, 0.015, 0, 0)"/>
<path fill="none" stroke-width="112" stroke-linecap="round" stroke-linejoin="round" stroke="rgb(0%, 0%, 0%)" stroke-opacity="1" stroke-miterlimit="10" d="M 12952.083333 11826.041667 L 12952.083333 12323.958333 " transform="matrix(0.015, 0, 0, 0.015, 0, 0)"/>
<path fill="none" stroke-width="112" stroke-linecap="round" stroke-linejoin="round" stroke="rgb(0%, 0%, 0%)" stroke-opacity="1" stroke-miterlimit="10" d="M 12952.083333 11896.875 L 12986.979167 11861.979167 L 13058.072917 11826.041667 L 13165.104167 11826.041667 L 13235.9375 11861.979167 L 13271.875 11933.072917 L 13271.875 12323.958333 " transform="matrix(0.015, 0, 0, 0.015, 0, 0)"/>
<path fill="none" stroke-width="112" stroke-linecap="round" stroke-linejoin="round" stroke="rgb(0%, 0%, 0%)" stroke-opacity="1" stroke-miterlimit="10" d="M 13627.083333 12323.958333 L 13627.083333 11577.083333 " transform="matrix(0.015, 0, 0, 0.015, 0, 0)"/>
<path fill="none" stroke-width="112" stroke-linecap="round" stroke-linejoin="round" stroke="rgb(0%, 0%, 0%)" stroke-opacity="1" stroke-miterlimit="10" d="M 13983.072917 11826.041667 L 13983.072917 12323.958333 " transform="matrix(0.015, 0, 0, 0.015, 0, 0)"/>
<path fill="none" stroke-width="112" stroke-linecap="round" stroke-linejoin="round" stroke="rgb(0%, 0%, 0%)" stroke-opacity="1" stroke-miterlimit="10" d="M 13983.072917 11896.875 L 14019.010417 11861.979167 L 14090.104167 11826.041667 L 14196.09375 11826.041667 L 14267.96875 11861.979167 L 14303.125 11933.072917 L 14303.125 12323.958333 " transform="matrix(0.015, 0, 0, 0.015, 0, 0)"/>
<path fill="none" stroke-width="112" stroke-linecap="round" stroke-linejoin="round" stroke="rgb(0%, 0%, 0%)" stroke-opacity="1" stroke-miterlimit="10" d="M 14588.020833 11826.041667 L 14765.885417 12323.958333 L 14942.96875 11826.041667 " transform="matrix(0.015, 0, 0, 0.015, 0, 0)"/>
<path fill="none" stroke-width="112" stroke-linecap="round" stroke-linejoin="round" stroke="rgb(0%, 0%, 0%)" stroke-opacity="1" stroke-miterlimit="10" d="M 15511.979167 12289.0625 L 15440.885417 12323.958333 L 15298.958333 12323.958333 L 15228.125 12289.0625 L 15191.927083 12216.927083 L 15191.927083 11933.072917 L 15228.125 11861.979167 L 15298.958333 11826.041667 L 15440.885417 11826.041667 L 15511.979167 11861.979167 L 15547.916667 11933.072917 L 15547.916667 12003.90625 L 15191.927083 12075 " transform="matrix(0.015, 0, 0, 0.015, 0, 0)"/>
<path fill="none" stroke-width="112" stroke-linecap="round" stroke-linejoin="round" stroke="rgb(0%, 0%, 0%)" stroke-opacity="1" stroke-miterlimit="10" d="M 15867.96875 12323.958333 L 15867.96875 11826.041667 " transform="matrix(0.015, 0, 0, 0.015, 0, 0)"/>
<path fill="none" stroke-width="112" stroke-linecap="round" stroke-linejoin="round" stroke="rgb(0%, 0%, 0%)" stroke-opacity="1" stroke-miterlimit="10" d="M 15867.96875 11967.96875 L 15903.90625 11896.875 L 15939.0625 11861.979167 L 16009.895833 11826.041667 L 16082.03125 11826.041667 " transform="matrix(0.015, 0, 0, 0.015, 0, 0)"/>
<path fill="none" stroke-width="112" stroke-linecap="round" stroke-linejoin="round" stroke="rgb(0%, 0%, 0%)" stroke-opacity="1" stroke-miterlimit="10" d="M 16223.958333 11826.041667 L 16508.072917 11826.041667 " transform="matrix(0.015, 0, 0, 0.015, 0, 0)"/>
<path fill="none" stroke-width="112" stroke-linecap="round" stroke-linejoin="round" stroke="rgb(0%, 0%, 0%)" stroke-opacity="1" stroke-miterlimit="10" d="M 16330.989583 11577.083333 L 16330.989583 12216.927083 L 16365.885417 12289.0625 L 16436.979167 12323.958333 L 16508.072917 12323.958333 " transform="matrix(0.015, 0, 0, 0.015, 0, 0)"/>
<path fill="none" stroke-width="112" stroke-linecap="round" stroke-linejoin="round" stroke="rgb(0%, 0%, 0%)" stroke-opacity="1" stroke-miterlimit="10" d="M 16757.03125 12323.958333 L 16757.03125 11826.041667 " transform="matrix(0.015, 0, 0, 0.015, 0, 0)"/>
<path fill="none" stroke-width="112" stroke-linecap="round" stroke-linejoin="round" stroke="rgb(0%, 0%, 0%)" stroke-opacity="1" stroke-miterlimit="10" d="M 16757.03125 11577.083333 L 16721.875 11613.020833 L 16757.03125 11647.916667 L 16792.96875 11613.020833 L 16757.03125 11577.083333 L 16757.03125 11647.916667 " transform="matrix(0.015, 0, 0, 0.015, 0, 0)"/>
<path fill="none" stroke-width="112" stroke-linecap="round" stroke-linejoin="round" stroke="rgb(0%, 0%, 0%)" stroke-opacity="1" stroke-miterlimit="10" d="M 17113.020833 11826.041667 L 17113.020833 12323.958333 " transform="matrix(0.015, 0, 0, 0.015, 0, 0)"/>
<path fill="none" stroke-width="112" stroke-linecap="round" stroke-linejoin="round" stroke="rgb(0%, 0%, 0%)" stroke-opacity="1" stroke-miterlimit="10" d="M 17113.020833 11896.875 L 17148.958333 11861.979167 L 17220.052083 11826.041667 L 17326.041667 11826.041667 L 17397.916667 11861.979167 L 17433.072917 11933.072917 L 17433.072917 12323.958333 " transform="matrix(0.015, 0, 0, 0.015, 0, 0)"/>
<path fill="none" stroke-width="112" stroke-linecap="round" stroke-linejoin="round" stroke="rgb(0%, 0%, 0%)" stroke-opacity="1" stroke-miterlimit="10" d="M 18109.114583 11826.041667 L 18109.114583 12430.989583 L 18072.916667 12502.083333 L 18038.020833 12538.020833 L 17966.927083 12572.916667 L 17859.895833 12572.916667 L 17789.0625 12538.020833 " transform="matrix(0.015, 0, 0, 0.015, 0, 0)"/>
<path fill="none" stroke-width="112" stroke-linecap="round" stroke-linejoin="round" stroke="rgb(0%, 0%, 0%)" stroke-opacity="1" stroke-miterlimit="10" d="M 18109.114583 12289.0625 L 18038.020833 12323.958333 L 17896.09375 12323.958333 L 17823.958333 12289.0625 L 17789.0625 12253.125 L 17753.125 12182.03125 L 17753.125 11967.96875 L 17789.0625 11896.875 L 17823.958333 11861.979167 L 17896.09375 11826.041667 L 18038.020833 11826.041667 L 18109.114583 11861.979167 " transform="matrix(0.015, 0, 0, 0.015, 0, 0)"/>
<path fill="none" stroke-width="112" stroke-linecap="round" stroke-linejoin="round" stroke="rgb(0%, 0%, 0%)" stroke-opacity="1" stroke-miterlimit="10" d="M 19034.114583 12323.958333 L 19034.114583 11577.083333 " transform="matrix(0.015, 0, 0, 0.015, 0, 0)"/>
<path fill="none" stroke-width="112" stroke-linecap="round" stroke-linejoin="round" stroke="rgb(0%, 0%, 0%)" stroke-opacity="1" stroke-miterlimit="10" d="M 19389.0625 11826.041667 L 19389.0625 12323.958333 " transform="matrix(0.015, 0, 0, 0.015, 0, 0)"/>
<path fill="none" stroke-width="112" stroke-linecap="round" stroke-linejoin="round" stroke="rgb(0%, 0%, 0%)" stroke-opacity="1" stroke-miterlimit="10" d="M 19389.0625 11896.875 L 19425 11861.979167 L 19496.09375 11826.041667 L 19603.125 11826.041667 L 19673.958333 11861.979167 L 19709.895833 11933.072917 L 19709.895833 12323.958333 " transform="matrix(0.015, 0, 0, 0.015, 0, 0)"/>
<path fill="none" stroke-width="112" stroke-linecap="round" stroke-linejoin="round" stroke="rgb(0%, 0%, 0%)" stroke-opacity="1" stroke-miterlimit="10" d="M 20065.104167 11826.041667 L 20065.104167 12572.916667 " transform="matrix(0.015, 0, 0, 0.015, 0, 0)"/>
<path fill="none" stroke-width="112" stroke-linecap="round" stroke-linejoin="round" stroke="rgb(0%, 0%, 0%)" stroke-opacity="1" stroke-miterlimit="10" d="M 20065.104167 11861.979167 L 20135.9375 11826.041667 L 20278.90625 11826.041667 L 20350 11861.979167 L 20384.895833 11896.875 L 20421.09375 11967.96875 L 20421.09375 12182.03125 L 20384.895833 12253.125 L 20350 12289.0625 L 20278.90625 12323.958333 L 20135.9375 12323.958333 L 20065.104167 12289.0625 " transform="matrix(0.015, 0, 0, 0.015, 0, 0)"/>
<path fill="none" stroke-width="112" stroke-linecap="round" stroke-linejoin="round" stroke="rgb(0%, 0%, 0%)" stroke-opacity="1" stroke-miterlimit="10" d="M 21060.9375 11826.041667 L 21060.9375 12323.958333 " transform="matrix(0.015, 0, 0, 0.015, 0, 0)"/>
<path fill="none" stroke-width="112" stroke-linecap="round" stroke-linejoin="round" stroke="rgb(0%, 0%, 0%)" stroke-opacity="1" stroke-miterlimit="10" d="M 20740.885417 11826.041667 L 20740.885417 12216.927083 L 20777.083333 12289.0625 L 20847.916667 12323.958333 L 20953.90625 12323.958333 L 21026.041667 12289.0625 L 21060.9375 12253.125 " transform="matrix(0.015, 0, 0, 0.015, 0, 0)"/>
<path fill="none" stroke-width="112" stroke-linecap="round" stroke-linejoin="round" stroke="rgb(0%, 0%, 0%)" stroke-opacity="1" stroke-miterlimit="10" d="M 21309.895833 11826.041667 L 21595.052083 11826.041667 " transform="matrix(0.015, 0, 0, 0.015, 0, 0)"/>
<path fill="none" stroke-width="112" stroke-linecap="round" stroke-linejoin="round" stroke="rgb(0%, 0%, 0%)" stroke-opacity="1" stroke-miterlimit="10" d="M 21416.927083 11577.083333 L 21416.927083 12216.927083 L 21452.083333 12289.0625 L 21523.958333 12323.958333 L 21595.052083 12323.958333 " transform="matrix(0.015, 0, 0, 0.015, 0, 0)"/>
<path fill="none" stroke-width="112" stroke-linecap="round" stroke-linejoin="round" stroke="rgb(0%, 0%, 0%)" stroke-opacity="1" stroke-miterlimit="10" d="M 28821.875 5146.09375 L 28858.072917 5039.0625 L 28892.96875 5003.90625 L 28964.0625 4967.96875 L 29071.09375 4967.96875 L 29141.927083 5003.90625 L 29178.125 5039.0625 L 29213.020833 5110.9375 L 29213.020833 5395.052083 L 28465.885417 5395.052083 L 28465.885417 5146.09375 L 28502.083333 5075 L 28536.979167 5039.0625 L 28609.114583 5003.90625 L 28679.947917 5003.90625 L 28751.041667 5039.0625 L 28785.9375 5075 L 28821.875 5146.09375 L 28821.875 5395.052083 " transform="matrix(0.015, 0, 0, 0.015, 0, 0)"/>
<path fill="none" stroke-width="112" stroke-linecap="round" stroke-linejoin="round" stroke="rgb(0%, 0%, 0%)" stroke-opacity="1" stroke-miterlimit="10" d="M 29213.020833 4328.125 L 28821.875 4328.125 L 28751.041667 4364.0625 L 28715.104167 4434.895833 L 28715.104167 4577.083333 L 28751.041667 4647.916667 " transform="matrix(0.015, 0, 0, 0.015, 0, 0)"/>
<path fill="none" stroke-width="112" stroke-linecap="round" stroke-linejoin="round" stroke="rgb(0%, 0%, 0%)" stroke-opacity="1" stroke-miterlimit="10" d="M 29178.125 4328.125 L 29213.020833 4398.958333 L 29213.020833 4577.083333 L 29178.125 4647.916667 L 29107.03125 4684.114583 L 29034.895833 4684.114583 L 28964.0625 4647.916667 L 28928.90625 4577.083333 L 28928.90625 4398.958333 L 28892.96875 4328.125 " transform="matrix(0.015, 0, 0, 0.015, 0, 0)"/>
<path fill="none" stroke-width="112" stroke-linecap="round" stroke-linejoin="round" stroke="rgb(0%, 0%, 0%)" stroke-opacity="1" stroke-miterlimit="10" d="M 28715.104167 4078.90625 L 28715.104167 3795.052083 " transform="matrix(0.015, 0, 0, 0.015, 0, 0)"/>
<path fill="none" stroke-width="112" stroke-linecap="round" stroke-linejoin="round" stroke="rgb(0%, 0%, 0%)" stroke-opacity="1" stroke-miterlimit="10" d="M 28465.885417 3971.875 L 29107.03125 3971.875 L 29178.125 3936.979167 L 29213.020833 3865.885417 L 29213.020833 3795.052083 " transform="matrix(0.015, 0, 0, 0.015, 0, 0)"/>
<path fill="none" stroke-width="112" stroke-linecap="round" stroke-linejoin="round" stroke="rgb(0%, 0%, 0%)" stroke-opacity="1" stroke-miterlimit="10" d="M 28715.104167 3652.083333 L 28715.104167 3367.96875 " transform="matrix(0.015, 0, 0, 0.015, 0, 0)"/>
<path fill="none" stroke-width="112" stroke-linecap="round" stroke-linejoin="round" stroke="rgb(0%, 0%, 0%)" stroke-opacity="1" stroke-miterlimit="10" d="M 28465.885417 3546.09375 L 29107.03125 3546.09375 L 29178.125 3509.895833 L 29213.020833 3439.0625 L 29213.020833 3367.96875 " transform="matrix(0.015, 0, 0, 0.015, 0, 0)"/>
<path fill="none" stroke-width="112" stroke-linecap="round" stroke-linejoin="round" stroke="rgb(0%, 0%, 0%)" stroke-opacity="1" stroke-miterlimit="10" d="M 29178.125 2834.114583 L 29213.020833 2904.947917 L 29213.020833 3047.916667 L 29178.125 3119.010417 L 29107.03125 3153.90625 L 28821.875 3153.90625 L 28751.041667 3119.010417 L 28715.104167 3047.916667 L 28715.104167 2904.947917 L 28751.041667 2834.114583 L 28821.875 2798.958333 L 28892.96875 2798.958333 L 28964.0625 3153.90625 " transform="matrix(0.015, 0, 0, 0.015, 0, 0)"/>
<path fill="none" stroke-width="112" stroke-linecap="round" stroke-linejoin="round" stroke="rgb(0%, 0%, 0%)" stroke-opacity="1" stroke-miterlimit="10" d="M 29213.020833 2478.125 L 28715.104167 2478.125 " transform="matrix(0.015, 0, 0, 0.015, 0, 0)"/>
<path fill="none" stroke-width="112" stroke-linecap="round" stroke-linejoin="round" stroke="rgb(0%, 0%, 0%)" stroke-opacity="1" stroke-miterlimit="10" d="M 28858.072917 2478.125 L 28785.9375 2442.96875 L 28751.041667 2407.03125 L 28715.104167 2335.9375 L 28715.104167 2265.104167 " transform="matrix(0.015, 0, 0, 0.015, 0, 0)"/>
<path fill="none" stroke-width="112" stroke-linecap="round" stroke-linejoin="round" stroke="rgb(0%, 0%, 0%)" stroke-opacity="1" stroke-miterlimit="10" d="M 28715.104167 2086.979167 L 29213.020833 1909.114583 " transform="matrix(0.015, 0, 0, 0.015, 0, 0)"/>
<path fill="none" stroke-width="112" stroke-linecap="round" stroke-linejoin="round" stroke="rgb(0%, 0%, 0%)" stroke-opacity="1" stroke-miterlimit="10" d="M 28715.104167 1732.03125 L 29213.020833 1909.114583 L 29390.885417 1980.989583 L 29427.083333 2015.885417 L 29461.979167 2086.979167 " transform="matrix(0.015, 0, 0, 0.015, 0, 0)"/>
<path fill="none" stroke-width="112" stroke-linecap="round" stroke-linejoin="round" stroke="rgb(0%, 0%, 0%)" stroke-opacity="1" stroke-miterlimit="10" d="M 28928.90625 878.125 L 28928.90625 309.114583 " transform="matrix(0.015, 0, 0, 0.015, 0, 0)"/>
<path fill="none" stroke-width="112" stroke-linecap="round" stroke-linejoin="round" stroke="rgb(0%, 0%, 0%)" stroke-opacity="1" stroke-miterlimit="10" d="M 32805.989583 5146.09375 L 32841.927083 5039.0625 L 32877.083333 5003.90625 L 32947.916667 4967.96875 L 33054.947917 4967.96875 L 33126.041667 5003.90625 L 33161.979167 5039.0625 L 33196.875 5110.9375 L 33196.875 5395.052083 L 32450 5395.052083 L 32450 5146.09375 L 32485.9375 5075 L 32521.875 5039.0625 L 32592.96875 5003.90625 L 32664.0625 5003.90625 L 32734.895833 5039.0625 L 32771.09375 5075 L 32805.989583 5146.09375 L 32805.989583 5395.052083 " transform="matrix(0.015, 0, 0, 0.015, 0, 0)"/>
<path fill="none" stroke-width="112" stroke-linecap="round" stroke-linejoin="round" stroke="rgb(0%, 0%, 0%)" stroke-opacity="1" stroke-miterlimit="10" d="M 33196.875 4328.125 L 32805.989583 4328.125 L 32734.895833 4364.0625 L 32698.958333 4434.895833 L 32698.958333 4577.083333 L 32734.895833 4647.916667 " transform="matrix(0.015, 0, 0, 0.015, 0, 0)"/>
<path fill="none" stroke-width="112" stroke-linecap="round" stroke-linejoin="round" stroke="rgb(0%, 0%, 0%)" stroke-opacity="1" stroke-miterlimit="10" d="M 33161.979167 4328.125 L 33196.875 4398.958333 L 33196.875 4577.083333 L 33161.979167 4647.916667 L 33090.885417 4684.114583 L 33020.052083 4684.114583 L 32947.916667 4647.916667 L 32913.020833 4577.083333 L 32913.020833 4398.958333 L 32877.083333 4328.125 " transform="matrix(0.015, 0, 0, 0.015, 0, 0)"/>
<path fill="none" stroke-width="112" stroke-linecap="round" stroke-linejoin="round" stroke="rgb(0%, 0%, 0%)" stroke-opacity="1" stroke-miterlimit="10" d="M 32698.958333 4078.90625 L 32698.958333 3795.052083 " transform="matrix(0.015, 0, 0, 0.015, 0, 0)"/>
<path fill="none" stroke-width="112" stroke-linecap="round" stroke-linejoin="round" stroke="rgb(0%, 0%, 0%)" stroke-opacity="1" stroke-miterlimit="10" d="M 32450 3971.875 L 33090.885417 3971.875 L 33161.979167 3936.979167 L 33196.875 3865.885417 L 33196.875 3795.052083 " transform="matrix(0.015, 0, 0, 0.015, 0, 0)"/>
<path fill="none" stroke-width="112" stroke-linecap="round" stroke-linejoin="round" stroke="rgb(0%, 0%, 0%)" stroke-opacity="1" stroke-miterlimit="10" d="M 32698.958333 3652.083333 L 32698.958333 3367.96875 " transform="matrix(0.015, 0, 0, 0.015, 0, 0)"/>
<path fill="none" stroke-width="112" stroke-linecap="round" stroke-linejoin="round" stroke="rgb(0%, 0%, 0%)" stroke-opacity="1" stroke-miterlimit="10" d="M 32450 3546.09375 L 33090.885417 3546.09375 L 33161.979167 3509.895833 L 33196.875 3439.0625 L 33196.875 3367.96875 " transform="matrix(0.015, 0, 0, 0.015, 0, 0)"/>
<path fill="none" stroke-width="112" stroke-linecap="round" stroke-linejoin="round" stroke="rgb(0%, 0%, 0%)" stroke-opacity="1" stroke-miterlimit="10" d="M 33161.979167 2834.114583 L 33196.875 2904.947917 L 33196.875 3047.916667 L 33161.979167 3119.010417 L 33090.885417 3153.90625 L 32805.989583 3153.90625 L 32734.895833 3119.010417 L 32698.958333 3047.916667 L 32698.958333 2904.947917 L 32734.895833 2834.114583 L 32805.989583 2798.958333 L 32877.083333 2798.958333 L 32947.916667 3153.90625 " transform="matrix(0.015, 0, 0, 0.015, 0, 0)"/>
<path fill="none" stroke-width="112" stroke-linecap="round" stroke-linejoin="round" stroke="rgb(0%, 0%, 0%)" stroke-opacity="1" stroke-miterlimit="10" d="M 33196.875 2478.125 L 32698.958333 2478.125 " transform="matrix(0.015, 0, 0, 0.015, 0, 0)"/>
<path fill="none" stroke-width="112" stroke-linecap="round" stroke-linejoin="round" stroke="rgb(0%, 0%, 0%)" stroke-opacity="1" stroke-miterlimit="10" d="M 32841.927083 2478.125 L 32771.09375 2442.96875 L 32734.895833 2407.03125 L 32698.958333 2335.9375 L 32698.958333 2265.104167 " transform="matrix(0.015, 0, 0, 0.015, 0, 0)"/>
<path fill="none" stroke-width="112" stroke-linecap="round" stroke-linejoin="round" stroke="rgb(0%, 0%, 0%)" stroke-opacity="1" stroke-miterlimit="10" d="M 32698.958333 2086.979167 L 33196.875 1909.114583 " transform="matrix(0.015, 0, 0, 0.015, 0, 0)"/>
<path fill="none" stroke-width="112" stroke-linecap="round" stroke-linejoin="round" stroke="rgb(0%, 0%, 0%)" stroke-opacity="1" stroke-miterlimit="10" d="M 32698.958333 1732.03125 L 33196.875 1909.114583 L 33375 1980.989583 L 33410.9375 2015.885417 L 33446.09375 2086.979167 " transform="matrix(0.015, 0, 0, 0.015, 0, 0)"/>
<path fill="none" stroke-width="112" stroke-linecap="round" stroke-linejoin="round" stroke="rgb(0%, 0%, 0%)" stroke-opacity="1" stroke-miterlimit="10" d="M 32913.020833 878.125 L 32913.020833 309.114583 " transform="matrix(0.015, 0, 0, 0.015, 0, 0)"/>
<path fill="none" stroke-width="112" stroke-linecap="round" stroke-linejoin="round" stroke="rgb(0%, 0%, 0%)" stroke-opacity="1" stroke-miterlimit="10" d="M 33196.875 592.96875 L 32628.125 592.96875 " transform="matrix(0.015, 0, 0, 0.015, 0, 0)"/>
<path fill="none" stroke-width="112" stroke-linecap="round" stroke-linejoin="round" stroke="rgb(0%, 0%, 0%)" stroke-opacity="1" stroke-miterlimit="10" d="M 38416.927083 27352.083333 L 38702.083333 27352.083333 " transform="matrix(0.015, 0, 0, 0.015, 0, 0)"/>
<path fill="none" stroke-width="112" stroke-linecap="round" stroke-linejoin="round" stroke="rgb(0%, 0%, 0%)" stroke-opacity="1" stroke-miterlimit="10" d="M 38032.03125 8759.114583 L 42554.947917 8759.114583 " transform="matrix(0.015, 0, 0, 0.015, 0, 0)"/>
<path fill="none" stroke-width="112" stroke-linecap="round" stroke-linejoin="round" stroke="rgb(0%, 0%, 0%)" stroke-opacity="1" stroke-miterlimit="10" d="M 38032.03125 26403.125 L 42554.947917 26403.125 " transform="matrix(0.015, 0, 0, 0.015, 0, 0)"/>
<path fill="none" stroke-width="112" stroke-linecap="round" stroke-linejoin="round" stroke="rgb(0%, 0%, 0%)" stroke-opacity="1" stroke-miterlimit="10" d="M 38416.927083 27352.083333 L 38416.927083 27635.9375 " transform="matrix(0.015, 0, 0, 0.015, 0, 0)"/>
<path fill="none" stroke-width="112" stroke-linecap="round" stroke-linejoin="round" stroke="rgb(0%, 0%, 0%)" stroke-opacity="1" stroke-miterlimit="10" d="M 37658.072917 26777.083333 L 37658.072917 31869.010417 " transform="matrix(0.015, 0, 0, 0.015, 0, 0)"/>
<path fill="none" stroke-width="112" stroke-linecap="round" stroke-linejoin="round" stroke="rgb(0%, 0%, 0%)" stroke-opacity="1" stroke-miterlimit="10" d="M 24757.03125 26777.083333 L 24757.03125 31869.010417 " transform="matrix(0.015, 0, 0, 0.015, 0, 0)"/>
<path fill="none" stroke-width="112" stroke-linecap="round" stroke-linejoin="round" stroke="rgb(0%, 0%, 0%)" stroke-opacity="1" stroke-miterlimit="10" d="M 37658.072917 31430.989583 L 24757.03125 31430.989583 " transform="matrix(0.015, 0, 0, 0.015, 0, 0)"/>
<path fill="none" stroke-width="112" stroke-linecap="round" stroke-linejoin="round" stroke="rgb(0%, 0%, 0%)" stroke-opacity="1" stroke-miterlimit="10" d="M 37658.072917 31430.989583 L 24757.03125 31430.989583 " transform="matrix(0.015, 0, 0, 0.015, 0, 0)"/>
<path fill="none" stroke-width="112" stroke-linecap="round" stroke-linejoin="round" stroke="rgb(0%, 0%, 0%)" stroke-opacity="1" stroke-miterlimit="10" d="M 37658.072917 31430.989583 L 36816.927083 31869.010417 " transform="matrix(0.015, 0, 0, 0.015, 0, 0)"/>
<path fill="none" stroke-width="112" stroke-linecap="round" stroke-linejoin="round" stroke="rgb(0%, 0%, 0%)" stroke-opacity="1" stroke-miterlimit="10" d="M 37658.072917 31430.989583 L 36816.927083 30992.96875 " transform="matrix(0.015, 0, 0, 0.015, 0, 0)"/>
<path fill="none" stroke-width="112" stroke-linecap="round" stroke-linejoin="round" stroke="rgb(0%, 0%, 0%)" stroke-opacity="1" stroke-miterlimit="10" d="M 24757.03125 31430.989583 L 25598.958333 30992.96875 " transform="matrix(0.015, 0, 0, 0.015, 0, 0)"/>
<path fill="none" stroke-width="112" stroke-linecap="round" stroke-linejoin="round" stroke="rgb(0%, 0%, 0%)" stroke-opacity="1" stroke-miterlimit="10" d="M 24757.03125 31430.989583 L 25598.958333 31869.010417 " transform="matrix(0.015, 0, 0, 0.015, 0, 0)"/>
<path fill="none" stroke-width="112" stroke-linecap="round" stroke-linejoin="round" stroke="rgb(0%, 0%, 0%)" stroke-opacity="1" stroke-miterlimit="10" d="M 28184.114583 30911.979167 L 27758.072917 30911.979167 " transform="matrix(0.015, 0, 0, 0.015, 0, 0)"/>
<path fill="none" stroke-width="112" stroke-linecap="round" stroke-linejoin="round" stroke="rgb(0%, 0%, 0%)" stroke-opacity="1" stroke-miterlimit="10" d="M 27971.09375 30911.979167 L 27971.09375 30165.104167 L 27900 30271.09375 L 27828.90625 30342.96875 L 27758.072917 30378.125 " transform="matrix(0.015, 0, 0, 0.015, 0, 0)"/>
<path fill="none" stroke-width="112" stroke-linecap="round" stroke-linejoin="round" stroke="rgb(0%, 0%, 0%)" stroke-opacity="1" stroke-miterlimit="10" d="M 28433.072917 30165.104167 L 28930.989583 30165.104167 L 28610.9375 30911.979167 " transform="matrix(0.015, 0, 0, 0.015, 0, 0)"/>
<path fill="none" stroke-width="112" stroke-linecap="round" stroke-linejoin="round" stroke="rgb(0%, 0%, 0%)" stroke-opacity="1" stroke-miterlimit="10" d="M 29215.885417 30840.885417 L 29251.041667 30876.041667 L 29215.885417 30911.979167 L 29179.947917 30876.041667 L 29215.885417 30840.885417 L 29215.885417 30911.979167 " transform="matrix(0.015, 0, 0, 0.015, 0, 0)"/>
<path fill="none" stroke-width="112" stroke-linecap="round" stroke-linejoin="round" stroke="rgb(0%, 0%, 0%)" stroke-opacity="1" stroke-miterlimit="10" d="M 29535.9375 30235.9375 L 29571.875 30200 L 29642.96875 30165.104167 L 29821.09375 30165.104167 L 29891.927083 30200 L 29927.083333 30235.9375 L 29963.020833 30307.03125 L 29963.020833 30378.125 L 29927.083333 30484.895833 L 29500 30911.979167 L 29963.020833 30911.979167 " transform="matrix(0.015, 0, 0, 0.015, 0, 0)"/>
<path fill="none" stroke-width="112" stroke-linecap="round" stroke-linejoin="round" stroke="rgb(0%, 0%, 0%)" stroke-opacity="1" stroke-miterlimit="10" d="M 30211.979167 30165.104167 L 30709.895833 30165.104167 L 30390.104167 30911.979167 " transform="matrix(0.015, 0, 0, 0.015, 0, 0)"/>
<path fill="none" stroke-width="112" stroke-linecap="round" stroke-linejoin="round" stroke="rgb(0%, 0%, 0%)" stroke-opacity="1" stroke-miterlimit="10" d="M 30959.114583 30235.9375 L 30994.010417 30200 L 31065.104167 30165.104167 L 31242.96875 30165.104167 L 31314.0625 30200 L 31350 30235.9375 L 31385.9375 30307.03125 L 31385.9375 30378.125 L 31350 30484.895833 L 30922.916667 30911.979167 L 31385.9375 30911.979167 " transform="matrix(0.015, 0, 0, 0.015, 0, 0)"/>
<path fill="none" stroke-width="112" stroke-linecap="round" stroke-linejoin="round" stroke="rgb(0%, 0%, 0%)" stroke-opacity="1" stroke-miterlimit="10" d="M 31847.916667 30165.104167 L 31919.010417 30165.104167 L 31990.104167 30200 L 32026.041667 30235.9375 L 32060.9375 30307.03125 L 32096.875 30448.958333 L 32096.875 30627.083333 L 32060.9375 30769.010417 L 32026.041667 30840.885417 L 31990.104167 30876.041667 L 31919.010417 30911.979167 L 31847.916667 30911.979167 L 31777.083333 30876.041667 L 31740.885417 30840.885417 L 31705.989583 30769.010417 L 31670.052083 30627.083333 L 31670.052083 30448.958333 L 31705.989583 30307.03125 L 31740.885417 30235.9375 L 31777.083333 30200 L 31847.916667 30165.104167 " transform="matrix(0.015, 0, 0, 0.015, 0, 0)"/>
<path fill="none" stroke-width="112" stroke-linecap="round" stroke-linejoin="round" stroke="rgb(0%, 0%, 0%)" stroke-opacity="1" stroke-miterlimit="10" d="M 32985.9375 30911.979167 L 32985.9375 30414.0625 " transform="matrix(0.015, 0, 0, 0.015, 0, 0)"/>
<path fill="none" stroke-width="112" stroke-linecap="round" stroke-linejoin="round" stroke="rgb(0%, 0%, 0%)" stroke-opacity="1" stroke-miterlimit="10" d="M 32985.9375 30484.895833 L 33021.875 30448.958333 L 33092.96875 30414.0625 L 33200 30414.0625 L 33271.09375 30448.958333 L 33305.989583 30520.052083 L 33305.989583 30911.979167 " transform="matrix(0.015, 0, 0, 0.015, 0, 0)"/>
<path fill="none" stroke-width="112" stroke-linecap="round" stroke-linejoin="round" stroke="rgb(0%, 0%, 0%)" stroke-opacity="1" stroke-miterlimit="10" d="M 33305.989583 30520.052083 L 33341.927083 30448.958333 L 33413.020833 30414.0625 L 33520.052083 30414.0625 L 33590.885417 30448.958333 L 33626.041667 30520.052083 L 33626.041667 30911.979167 " transform="matrix(0.015, 0, 0, 0.015, 0, 0)"/>
<path fill="none" stroke-width="112" stroke-linecap="round" stroke-linejoin="round" stroke="rgb(0%, 0%, 0%)" stroke-opacity="1" stroke-miterlimit="10" d="M 33982.03125 30911.979167 L 33982.03125 30414.0625 " transform="matrix(0.015, 0, 0, 0.015, 0, 0)"/>
<path fill="none" stroke-width="112" stroke-linecap="round" stroke-linejoin="round" stroke="rgb(0%, 0%, 0%)" stroke-opacity="1" stroke-miterlimit="10" d="M 33982.03125 30484.895833 L 34017.96875 30448.958333 L 34089.0625 30414.0625 L 34195.052083 30414.0625 L 34266.927083 30448.958333 L 34302.083333 30520.052083 L 34302.083333 30911.979167 " transform="matrix(0.015, 0, 0, 0.015, 0, 0)"/>
<path fill="none" stroke-width="112" stroke-linecap="round" stroke-linejoin="round" stroke="rgb(0%, 0%, 0%)" stroke-opacity="1" stroke-miterlimit="10" d="M 34302.083333 30520.052083 L 34338.020833 30448.958333 L 34409.114583 30414.0625 L 34515.885417 30414.0625 L 34586.979167 30448.958333 L 34621.875 30520.052083 L 34621.875 30911.979167 " transform="matrix(0.015, 0, 0, 0.015, 0, 0)"/>
<path fill="none" stroke-width="112" stroke-linecap="round" stroke-linejoin="round" stroke="rgb(0%, 0%, 0%)" stroke-opacity="1" stroke-miterlimit="10" d="M 29650 39371.09375 L 28903.125 39371.09375 L 29436.979167 39121.875 L 28903.125 38872.916667 L 29650 38872.916667 " transform="matrix(0.015, 0, 0, 0.015, 0, 0)"/>
<path fill="none" stroke-width="112" stroke-linecap="round" stroke-linejoin="round" stroke="rgb(0%, 0%, 0%)" stroke-opacity="1" stroke-miterlimit="10" d="M 29650 38410.9375 L 29615.104167 38482.03125 L 29578.90625 38517.96875 L 29508.072917 38553.125 L 29295.052083 38553.125 L 29222.916667 38517.96875 L 29188.020833 38482.03125 L 29152.083333 38410.9375 L 29152.083333 38303.90625 L 29188.020833 38233.072917 L 29222.916667 38196.875 L 29295.052083 38161.979167 L 29508.072917 38161.979167 L 29578.90625 38196.875 L 29615.104167 38233.072917 L 29650 38303.90625 L 29650 38410.9375 " transform="matrix(0.015, 0, 0, 0.015, 0, 0)"/>
<path fill="none" stroke-width="112" stroke-linecap="round" stroke-linejoin="round" stroke="rgb(0%, 0%, 0%)" stroke-opacity="1" stroke-miterlimit="10" d="M 29152.083333 37947.916667 L 29152.083333 37664.0625 " transform="matrix(0.015, 0, 0, 0.015, 0, 0)"/>
<path fill="none" stroke-width="112" stroke-linecap="round" stroke-linejoin="round" stroke="rgb(0%, 0%, 0%)" stroke-opacity="1" stroke-miterlimit="10" d="M 28903.125 37841.927083 L 29544.010417 37841.927083 L 29615.104167 37805.989583 L 29650 37734.895833 L 29650 37664.0625 " transform="matrix(0.015, 0, 0, 0.015, 0, 0)"/>
<path fill="none" stroke-width="112" stroke-linecap="round" stroke-linejoin="round" stroke="rgb(0%, 0%, 0%)" stroke-opacity="1" stroke-miterlimit="10" d="M 29650 37308.072917 L 29615.104167 37378.90625 L 29578.90625 37415.104167 L 29508.072917 37451.041667 L 29295.052083 37451.041667 L 29222.916667 37415.104167 L 29188.020833 37378.90625 L 29152.083333 37308.072917 L 29152.083333 37202.083333 L 29188.020833 37129.947917 L 29222.916667 37095.052083 L 29295.052083 37059.114583 L 29508.072917 37059.114583 L 29578.90625 37095.052083 L 29615.104167 37129.947917 L 29650 37202.083333 L 29650 37308.072917 " transform="matrix(0.015, 0, 0, 0.015, 0, 0)"/>
<path fill="none" stroke-width="112" stroke-linecap="round" stroke-linejoin="round" stroke="rgb(0%, 0%, 0%)" stroke-opacity="1" stroke-miterlimit="10" d="M 29650 36739.0625 L 29152.083333 36739.0625 " transform="matrix(0.015, 0, 0, 0.015, 0, 0)"/>
<path fill="none" stroke-width="112" stroke-linecap="round" stroke-linejoin="round" stroke="rgb(0%, 0%, 0%)" stroke-opacity="1" stroke-miterlimit="10" d="M 29295.052083 36739.0625 L 29222.916667 36703.90625 L 29188.020833 36667.96875 L 29152.083333 36596.875 L 29152.083333 36526.041667 " transform="matrix(0.015, 0, 0, 0.015, 0, 0)"/>
<path fill="none" stroke-width="112" stroke-linecap="round" stroke-linejoin="round" stroke="rgb(0%, 0%, 0%)" stroke-opacity="1" stroke-miterlimit="10" d="M 28903.125 35565.104167 L 28903.125 35422.916667 L 28939.0625 35352.083333 L 29009.895833 35280.989583 L 29152.083333 35245.052083 L 29401.041667 35245.052083 L 29544.010417 35280.989583 L 29615.104167 35352.083333 L 29650 35422.916667 L 29650 35565.104167 L 29615.104167 35636.979167 L 29544.010417 35708.072917 L 29401.041667 35742.96875 L 29152.083333 35742.96875 L 29009.895833 35708.072917 L 28939.0625 35636.979167 L 28903.125 35565.104167 " transform="matrix(0.015, 0, 0, 0.015, 0, 0)"/>
<path fill="none" stroke-width="112" stroke-linecap="round" stroke-linejoin="round" stroke="rgb(0%, 0%, 0%)" stroke-opacity="1" stroke-miterlimit="10" d="M 29152.083333 34604.947917 L 29650 34604.947917 " transform="matrix(0.015, 0, 0, 0.015, 0, 0)"/>
<path fill="none" stroke-width="112" stroke-linecap="round" stroke-linejoin="round" stroke="rgb(0%, 0%, 0%)" stroke-opacity="1" stroke-miterlimit="10" d="M 29152.083333 34925 L 29544.010417 34925 L 29615.104167 34890.104167 L 29650 34817.96875 L 29650 34711.979167 L 29615.104167 34640.885417 L 29578.90625 34604.947917 " transform="matrix(0.015, 0, 0, 0.015, 0, 0)"/>
<path fill="none" stroke-width="112" stroke-linecap="round" stroke-linejoin="round" stroke="rgb(0%, 0%, 0%)" stroke-opacity="1" stroke-miterlimit="10" d="M 29152.083333 34355.989583 L 29152.083333 34071.875 " transform="matrix(0.015, 0, 0, 0.015, 0, 0)"/>
<path fill="none" stroke-width="112" stroke-linecap="round" stroke-linejoin="round" stroke="rgb(0%, 0%, 0%)" stroke-opacity="1" stroke-miterlimit="10" d="M 28903.125 34248.958333 L 29544.010417 34248.958333 L 29615.104167 34214.0625 L 29650 34142.96875 L 29650 34071.875 " transform="matrix(0.015, 0, 0, 0.015, 0, 0)"/>
<path fill="none" stroke-width="112" stroke-linecap="round" stroke-linejoin="round" stroke="rgb(0%, 0%, 0%)" stroke-opacity="1" stroke-miterlimit="10" d="M 29650 32861.979167 L 29650 33289.0625 " transform="matrix(0.015, 0, 0, 0.015, 0, 0)"/>
<path fill="none" stroke-width="112" stroke-linecap="round" stroke-linejoin="round" stroke="rgb(0%, 0%, 0%)" stroke-opacity="1" stroke-miterlimit="10" d="M 29650 33076.041667 L 28903.125 33076.041667 L 29009.895833 33146.875 L 29080.989583 33217.96875 L 29116.927083 33289.0625 " transform="matrix(0.015, 0, 0, 0.015, 0, 0)"/>
<path fill="none" stroke-width="112" stroke-linecap="round" stroke-linejoin="round" stroke="rgb(0%, 0%, 0%)" stroke-opacity="1" stroke-miterlimit="10" d="M 38416.927083 27352.083333 L 40694.010417 29628.90625 " transform="matrix(0.015, 0, 0, 0.015, 0, 0)"/>
<path fill="none" stroke-width="112" stroke-linecap="round" stroke-linejoin="round" stroke="rgb(0%, 0%, 0%)" stroke-opacity="1" stroke-miterlimit="10" d="M 33445.052083 39371.09375 L 32697.916667 39371.09375 L 33230.989583 39121.875 L 32697.916667 38872.916667 L 33445.052083 38872.916667 " transform="matrix(0.015, 0, 0, 0.015, 0, 0)"/>
<path fill="none" stroke-width="112" stroke-linecap="round" stroke-linejoin="round" stroke="rgb(0%, 0%, 0%)" stroke-opacity="1" stroke-miterlimit="10" d="M 33445.052083 38410.9375 L 33409.114583 38482.03125 L 33373.958333 38517.96875 L 33302.083333 38553.125 L 33089.0625 38553.125 L 33017.96875 38517.96875 L 32982.03125 38482.03125 L 32946.875 38410.9375 L 32946.875 38303.90625 L 32982.03125 38233.072917 L 33017.96875 38196.875 L 33089.0625 38161.979167 L 33302.083333 38161.979167 L 33373.958333 38196.875 L 33409.114583 38233.072917 L 33445.052083 38303.90625 L 33445.052083 38410.9375 " transform="matrix(0.015, 0, 0, 0.015, 0, 0)"/>
<path fill="none" stroke-width="112" stroke-linecap="round" stroke-linejoin="round" stroke="rgb(0%, 0%, 0%)" stroke-opacity="1" stroke-miterlimit="10" d="M 32946.875 37947.916667 L 32946.875 37664.0625 " transform="matrix(0.015, 0, 0, 0.015, 0, 0)"/>
<path fill="none" stroke-width="112" stroke-linecap="round" stroke-linejoin="round" stroke="rgb(0%, 0%, 0%)" stroke-opacity="1" stroke-miterlimit="10" d="M 32697.916667 37841.927083 L 33338.020833 37841.927083 L 33409.114583 37805.989583 L 33445.052083 37734.895833 L 33445.052083 37664.0625 " transform="matrix(0.015, 0, 0, 0.015, 0, 0)"/>
<path fill="none" stroke-width="112" stroke-linecap="round" stroke-linejoin="round" stroke="rgb(0%, 0%, 0%)" stroke-opacity="1" stroke-miterlimit="10" d="M 33445.052083 37308.072917 L 33409.114583 37378.90625 L 33373.958333 37415.104167 L 33302.083333 37451.041667 L 33089.0625 37451.041667 L 33017.96875 37415.104167 L 32982.03125 37378.90625 L 32946.875 37308.072917 L 32946.875 37202.083333 L 32982.03125 37129.947917 L 33017.96875 37095.052083 L 33089.0625 37059.114583 L 33302.083333 37059.114583 L 33373.958333 37095.052083 L 33409.114583 37129.947917 L 33445.052083 37202.083333 L 33445.052083 37308.072917 " transform="matrix(0.015, 0, 0, 0.015, 0, 0)"/>
<path fill="none" stroke-width="112" stroke-linecap="round" stroke-linejoin="round" stroke="rgb(0%, 0%, 0%)" stroke-opacity="1" stroke-miterlimit="10" d="M 33445.052083 36739.0625 L 32946.875 36739.0625 " transform="matrix(0.015, 0, 0, 0.015, 0, 0)"/>
<path fill="none" stroke-width="112" stroke-linecap="round" stroke-linejoin="round" stroke="rgb(0%, 0%, 0%)" stroke-opacity="1" stroke-miterlimit="10" d="M 33089.0625 36739.0625 L 33017.96875 36703.90625 L 32982.03125 36667.96875 L 32946.875 36596.875 L 32946.875 36526.041667 " transform="matrix(0.015, 0, 0, 0.015, 0, 0)"/>
<path fill="none" stroke-width="112" stroke-linecap="round" stroke-linejoin="round" stroke="rgb(0%, 0%, 0%)" stroke-opacity="1" stroke-miterlimit="10" d="M 32697.916667 35565.104167 L 32697.916667 35422.916667 L 32733.072917 35352.083333 L 32803.90625 35280.989583 L 32946.875 35245.052083 L 33196.09375 35245.052083 L 33338.020833 35280.989583 L 33409.114583 35352.083333 L 33445.052083 35422.916667 L 33445.052083 35565.104167 L 33409.114583 35636.979167 L 33338.020833 35708.072917 L 33196.09375 35742.96875 L 32946.875 35742.96875 L 32803.90625 35708.072917 L 32733.072917 35636.979167 L 32697.916667 35565.104167 " transform="matrix(0.015, 0, 0, 0.015, 0, 0)"/>
<path fill="none" stroke-width="112" stroke-linecap="round" stroke-linejoin="round" stroke="rgb(0%, 0%, 0%)" stroke-opacity="1" stroke-miterlimit="10" d="M 32946.875 34604.947917 L 33445.052083 34604.947917 " transform="matrix(0.015, 0, 0, 0.015, 0, 0)"/>
<path fill="none" stroke-width="112" stroke-linecap="round" stroke-linejoin="round" stroke="rgb(0%, 0%, 0%)" stroke-opacity="1" stroke-miterlimit="10" d="M 32946.875 34925 L 33338.020833 34925 L 33409.114583 34890.104167 L 33445.052083 34817.96875 L 33445.052083 34711.979167 L 33409.114583 34640.885417 L 33373.958333 34604.947917 " transform="matrix(0.015, 0, 0, 0.015, 0, 0)"/>
<path fill="none" stroke-width="112" stroke-linecap="round" stroke-linejoin="round" stroke="rgb(0%, 0%, 0%)" stroke-opacity="1" stroke-miterlimit="10" d="M 32946.875 34355.989583 L 32946.875 34071.875 " transform="matrix(0.015, 0, 0, 0.015, 0, 0)"/>
<path fill="none" stroke-width="112" stroke-linecap="round" stroke-linejoin="round" stroke="rgb(0%, 0%, 0%)" stroke-opacity="1" stroke-miterlimit="10" d="M 32697.916667 34248.958333 L 33338.020833 34248.958333 L 33409.114583 34214.0625 L 33445.052083 34142.96875 L 33445.052083 34071.875 " transform="matrix(0.015, 0, 0, 0.015, 0, 0)"/>
<path fill="none" stroke-width="112" stroke-linecap="round" stroke-linejoin="round" stroke="rgb(0%, 0%, 0%)" stroke-opacity="1" stroke-miterlimit="10" d="M 32769.010417 33289.0625 L 32733.072917 33253.125 L 32697.916667 33182.03125 L 32697.916667 33003.90625 L 32733.072917 32933.072917 L 32769.010417 32897.916667 L 32840.104167 32861.979167 L 32910.9375 32861.979167 L 33017.96875 32897.916667 L 33445.052083 33325 L 33445.052083 32861.979167 " transform="matrix(0.015, 0, 0, 0.015, 0, 0)"/>
</svg>
