%TF.GenerationSoftware,KiCad,Pcbnew,7.0.9*%
%TF.CreationDate,2023-12-30T10:40:08-05:00*%
%TF.ProjectId,DIY HBridge,44495920-4842-4726-9964-67652e6b6963,rev?*%
%TF.SameCoordinates,Original*%
%TF.FileFunction,Copper,L2,Bot*%
%TF.FilePolarity,Positive*%
%FSLAX46Y46*%
G04 Gerber Fmt 4.6, Leading zero omitted, Abs format (unit mm)*
G04 Created by KiCad (PCBNEW 7.0.9) date 2023-12-30 10:40:08*
%MOMM*%
%LPD*%
G01*
G04 APERTURE LIST*
%TA.AperFunction,ComponentPad*%
%ADD10R,2.000000X1.905000*%
%TD*%
%TA.AperFunction,ComponentPad*%
%ADD11O,2.000000X1.905000*%
%TD*%
%TA.AperFunction,ComponentPad*%
%ADD12R,1.700000X1.700000*%
%TD*%
%TA.AperFunction,ComponentPad*%
%ADD13O,1.700000X1.700000*%
%TD*%
%TA.AperFunction,ComponentPad*%
%ADD14R,2.600000X2.600000*%
%TD*%
%TA.AperFunction,ComponentPad*%
%ADD15C,2.600000*%
%TD*%
%TA.AperFunction,ViaPad*%
%ADD16C,0.800000*%
%TD*%
%TA.AperFunction,Conductor*%
%ADD17C,0.250000*%
%TD*%
%TA.AperFunction,Conductor*%
%ADD18C,2.000000*%
%TD*%
G04 APERTURE END LIST*
D10*
%TO.P,Q1,1,G*%
%TO.N,In1*%
X72390000Y-55880000D03*
D11*
%TO.P,Q1,2,D*%
%TO.N,Motor Out 1*%
X72390000Y-58420000D03*
%TO.P,Q1,3,S*%
%TO.N,GND*%
X72390000Y-60960000D03*
%TD*%
D10*
%TO.P,Q3,1,G*%
%TO.N,Net-(Q3-G)*%
X69215000Y-60960000D03*
D11*
%TO.P,Q3,2,D*%
%TO.N,Motor Out 1*%
X69215000Y-58420000D03*
%TO.P,Q3,3,S*%
%TO.N,VCC*%
X69215000Y-55880000D03*
%TD*%
D12*
%TO.P,J4,1,Pin_1*%
%TO.N,GND*%
X67564000Y-45720000D03*
D13*
%TO.P,J4,2,Pin_2*%
%TO.N,~{In1}*%
X67564000Y-48260000D03*
%TO.P,J4,3,Pin_3*%
%TO.N,In1*%
X67564000Y-50800000D03*
%TD*%
D10*
%TO.P,Q2,1,G*%
%TO.N,~{In1}*%
X77470000Y-55880000D03*
D11*
%TO.P,Q2,2,D*%
%TO.N,Motor Out 2*%
X77470000Y-58420000D03*
%TO.P,Q2,3,S*%
%TO.N,GND*%
X77470000Y-60960000D03*
%TD*%
D10*
%TO.P,Q4,1,G*%
%TO.N,Net-(Q4-G)*%
X85725000Y-60960000D03*
D11*
%TO.P,Q4,2,D*%
%TO.N,Motor Out 2*%
X85725000Y-58420000D03*
%TO.P,Q4,3,S*%
%TO.N,VCC*%
X85725000Y-55880000D03*
%TD*%
D14*
%TO.P,J1,1,Pin_1*%
%TO.N,VCC*%
X78999000Y-47701000D03*
D15*
%TO.P,J1,2,Pin_2*%
%TO.N,GND*%
X73919000Y-47701000D03*
%TD*%
D14*
%TO.P,J2,1,Pin_1*%
%TO.N,Motor Out 1*%
X74417000Y-69139000D03*
D15*
%TO.P,J2,2,Pin_2*%
%TO.N,Motor Out 2*%
X79497000Y-69139000D03*
%TD*%
D16*
%TO.N,Net-(Q4-G)*%
X82931000Y-55753000D03*
%TO.N,GND*%
X88392000Y-61722000D03*
X76708000Y-70104000D03*
X68199000Y-62865000D03*
X84328000Y-63754000D03*
X72136000Y-63754000D03*
X76200000Y-45974000D03*
X78994000Y-51562000D03*
X82550000Y-46736000D03*
X88392000Y-53340000D03*
X81534000Y-56388000D03*
X69596000Y-67564000D03*
X70866000Y-49022000D03*
X77724000Y-63500000D03*
X65532000Y-66802000D03*
X66802000Y-54610000D03*
%TD*%
D17*
%TO.N,Net-(Q4-G)*%
X85725000Y-60960000D02*
X86360000Y-60960000D01*
X87884000Y-55118000D02*
X86868000Y-54102000D01*
X86868000Y-54102000D02*
X84582000Y-54102000D01*
X87884000Y-59436000D02*
X87884000Y-55118000D01*
X86360000Y-60960000D02*
X87884000Y-59436000D01*
X84582000Y-54102000D02*
X82931000Y-55753000D01*
%TO.N,In1*%
X72390000Y-55626000D02*
X67564000Y-50800000D01*
X72390000Y-55880000D02*
X72390000Y-55626000D01*
D18*
%TO.N,Motor Out 1*%
X73512930Y-58420000D02*
X74930000Y-59837070D01*
X69215000Y-58420000D02*
X72390000Y-58420000D01*
X74930000Y-59837070D02*
X74930000Y-68626000D01*
X74417000Y-69139000D02*
X74930000Y-68626000D01*
X72390000Y-58420000D02*
X73512930Y-58420000D01*
D17*
%TO.N,~{In1}*%
X75184000Y-55880000D02*
X67564000Y-48260000D01*
X77470000Y-55880000D02*
X75184000Y-55880000D01*
D18*
%TO.N,Motor Out 2*%
X77470000Y-58420000D02*
X81534000Y-58420000D01*
X79497000Y-69139000D02*
X81534000Y-67102000D01*
X81534000Y-58420000D02*
X85725000Y-58420000D01*
X81534000Y-67102000D02*
X81534000Y-58420000D01*
%TD*%
%TA.AperFunction,Conductor*%
%TO.N,GND*%
G36*
X86869203Y-43126579D02*
G01*
X87137793Y-43144184D01*
X87142590Y-43144815D01*
X87405402Y-43197091D01*
X87410046Y-43198335D01*
X87650090Y-43279819D01*
X87663785Y-43284468D01*
X87668260Y-43286321D01*
X87908578Y-43404832D01*
X87912757Y-43407245D01*
X88135562Y-43556119D01*
X88139396Y-43559062D01*
X88340845Y-43735728D01*
X88344271Y-43739154D01*
X88520937Y-43940603D01*
X88523882Y-43944439D01*
X88672751Y-44167237D01*
X88675169Y-44171426D01*
X88793677Y-44411737D01*
X88795531Y-44416214D01*
X88814097Y-44470907D01*
X88881660Y-44669943D01*
X88882910Y-44674608D01*
X88889000Y-44705220D01*
X88935183Y-44937402D01*
X88935815Y-44942206D01*
X88953421Y-45210797D01*
X88953500Y-45213218D01*
X88953500Y-71372781D01*
X88953421Y-71375202D01*
X88935815Y-71643793D01*
X88935183Y-71648597D01*
X88882912Y-71911385D01*
X88881658Y-71916066D01*
X88795531Y-72169785D01*
X88793677Y-72174262D01*
X88675169Y-72414573D01*
X88672747Y-72418769D01*
X88523887Y-72641553D01*
X88520937Y-72645396D01*
X88344271Y-72846845D01*
X88340845Y-72850271D01*
X88139396Y-73026937D01*
X88135553Y-73029887D01*
X87912769Y-73178747D01*
X87908573Y-73181169D01*
X87668262Y-73299677D01*
X87663785Y-73301531D01*
X87478770Y-73364335D01*
X87410060Y-73387659D01*
X87405387Y-73388911D01*
X87341513Y-73401616D01*
X87142597Y-73441183D01*
X87137793Y-73441815D01*
X86869203Y-73459421D01*
X86866782Y-73459500D01*
X67057218Y-73459500D01*
X67054797Y-73459421D01*
X66786206Y-73441815D01*
X66781402Y-73441183D01*
X66649097Y-73414866D01*
X66518608Y-73388910D01*
X66513943Y-73387660D01*
X66358541Y-73334909D01*
X66260214Y-73301531D01*
X66255737Y-73299677D01*
X66015426Y-73181169D01*
X66011237Y-73178751D01*
X65788439Y-73029882D01*
X65784603Y-73026937D01*
X65583154Y-72850271D01*
X65579728Y-72846845D01*
X65403062Y-72645396D01*
X65400119Y-72641562D01*
X65251245Y-72418757D01*
X65248830Y-72414573D01*
X65130322Y-72174262D01*
X65128468Y-72169785D01*
X65123819Y-72156090D01*
X65042335Y-71916046D01*
X65041091Y-71911402D01*
X64988815Y-71648590D01*
X64988184Y-71643793D01*
X64970579Y-71375202D01*
X64970500Y-71372781D01*
X64970500Y-70171771D01*
X66471788Y-70171771D01*
X66501414Y-70441019D01*
X66569813Y-70702651D01*
X66569928Y-70703088D01*
X66619498Y-70819735D01*
X66675870Y-70952390D01*
X66816982Y-71183610D01*
X66816984Y-71183612D01*
X66990252Y-71391817D01*
X66990253Y-71391818D01*
X66990255Y-71391820D01*
X67191998Y-71572582D01*
X67417910Y-71722044D01*
X67663176Y-71837020D01*
X67808628Y-71880780D01*
X67922564Y-71915059D01*
X67922573Y-71915061D01*
X68190559Y-71954500D01*
X68190561Y-71954500D01*
X68393628Y-71954500D01*
X68393631Y-71954500D01*
X68596156Y-71939677D01*
X68860553Y-71880780D01*
X69113558Y-71784014D01*
X69349777Y-71651441D01*
X69564177Y-71485888D01*
X69752186Y-71290881D01*
X69909799Y-71070579D01*
X70033656Y-70829675D01*
X70076991Y-70702650D01*
X70121116Y-70573312D01*
X70121118Y-70573305D01*
X70126072Y-70546482D01*
X70170319Y-70306933D01*
X70180212Y-70036235D01*
X70150586Y-69766982D01*
X70082072Y-69504912D01*
X69976130Y-69255610D01*
X69835018Y-69024390D01*
X69709712Y-68873819D01*
X69661747Y-68816182D01*
X69556760Y-68722113D01*
X69460002Y-68635418D01*
X69234090Y-68485956D01*
X69234086Y-68485954D01*
X69234087Y-68485954D01*
X68988824Y-68370980D01*
X68729435Y-68292940D01*
X68729426Y-68292938D01*
X68461441Y-68253500D01*
X68461439Y-68253500D01*
X68258369Y-68253500D01*
X68171572Y-68259852D01*
X68055840Y-68268323D01*
X67791448Y-68327219D01*
X67538449Y-68423983D01*
X67538440Y-68423987D01*
X67302223Y-68556559D01*
X67302218Y-68556562D01*
X67087822Y-68722113D01*
X67087818Y-68722116D01*
X66899812Y-68917120D01*
X66742199Y-69137423D01*
X66618348Y-69378315D01*
X66618340Y-69378333D01*
X66530883Y-69634687D01*
X66530881Y-69634694D01*
X66484664Y-69884912D01*
X66481681Y-69901067D01*
X66472361Y-70156102D01*
X66471788Y-70171771D01*
X64970500Y-70171771D01*
X64970500Y-50800004D01*
X66208341Y-50800004D01*
X66228936Y-51035403D01*
X66228937Y-51035405D01*
X66228937Y-51035408D01*
X66290097Y-51263663D01*
X66389965Y-51477830D01*
X66525505Y-51671401D01*
X66692599Y-51838495D01*
X66886170Y-51974035D01*
X67100337Y-52073903D01*
X67328592Y-52135063D01*
X67446296Y-52145361D01*
X67563996Y-52155659D01*
X67564000Y-52155659D01*
X67564004Y-52155659D01*
X67698518Y-52143889D01*
X67799408Y-52135063D01*
X67927755Y-52100672D01*
X67978181Y-52105083D01*
X67999234Y-52119824D01*
X70867826Y-54988416D01*
X70889218Y-55034292D01*
X70889500Y-55040742D01*
X70889501Y-56845500D01*
X70872188Y-56893066D01*
X70828351Y-56918376D01*
X70815501Y-56919500D01*
X70446038Y-56919500D01*
X70398472Y-56902187D01*
X70373162Y-56858350D01*
X70381952Y-56808500D01*
X70387641Y-56800049D01*
X70483072Y-56677439D01*
X70597679Y-56465664D01*
X70675866Y-56237913D01*
X70715500Y-56000399D01*
X70715500Y-55759601D01*
X70675866Y-55522087D01*
X70597679Y-55294336D01*
X70483072Y-55082561D01*
X70335171Y-54892537D01*
X70158010Y-54729449D01*
X69956422Y-54597745D01*
X69893065Y-54569954D01*
X69735911Y-54501019D01*
X69735907Y-54501018D01*
X69735905Y-54501017D01*
X69577439Y-54460888D01*
X69502469Y-54441903D01*
X69322604Y-54427000D01*
X69322600Y-54427000D01*
X69107400Y-54427000D01*
X69107396Y-54427000D01*
X68927530Y-54441903D01*
X68927529Y-54441903D01*
X68762467Y-54483703D01*
X68694095Y-54501017D01*
X68694093Y-54501017D01*
X68694088Y-54501019D01*
X68473577Y-54597745D01*
X68271989Y-54729449D01*
X68094827Y-54892538D01*
X67946930Y-55082558D01*
X67946924Y-55082568D01*
X67832321Y-55294334D01*
X67754133Y-55522090D01*
X67714500Y-55759598D01*
X67714500Y-55759601D01*
X67714500Y-56000399D01*
X67754134Y-56237913D01*
X67768707Y-56280362D01*
X67832321Y-56465665D01*
X67871007Y-56537149D01*
X67946928Y-56677439D01*
X67946930Y-56677441D01*
X68077734Y-56845500D01*
X68094829Y-56867463D01*
X68271990Y-57030551D01*
X68340323Y-57075195D01*
X68340326Y-57075197D01*
X68370677Y-57115707D01*
X68367888Y-57166249D01*
X68340326Y-57199096D01*
X68290215Y-57231836D01*
X68241921Y-57276294D01*
X68107263Y-57400254D01*
X67954529Y-57596486D01*
X67954522Y-57596498D01*
X67836172Y-57815188D01*
X67755428Y-58050389D01*
X67714500Y-58295662D01*
X67714500Y-58544337D01*
X67745370Y-58729332D01*
X67755429Y-58789614D01*
X67797484Y-58912118D01*
X67836172Y-59024811D01*
X67901895Y-59146256D01*
X67954526Y-59243509D01*
X68082741Y-59408240D01*
X68089834Y-59417352D01*
X68105388Y-59465522D01*
X68086340Y-59512421D01*
X68057299Y-59532138D01*
X67972669Y-59563703D01*
X67857454Y-59649954D01*
X67771203Y-59765169D01*
X67771202Y-59765170D01*
X67720910Y-59900012D01*
X67720909Y-59900017D01*
X67714500Y-59959626D01*
X67714500Y-61960373D01*
X67720909Y-62019985D01*
X67771202Y-62154829D01*
X67771203Y-62154830D01*
X67771204Y-62154831D01*
X67857454Y-62270046D01*
X67972669Y-62356296D01*
X67972670Y-62356297D01*
X68083605Y-62397672D01*
X68107517Y-62406591D01*
X68167127Y-62413000D01*
X70262872Y-62412999D01*
X70322483Y-62406591D01*
X70389907Y-62381443D01*
X70457329Y-62356297D01*
X70457329Y-62356296D01*
X70457331Y-62356296D01*
X70572546Y-62270046D01*
X70658796Y-62154831D01*
X70709091Y-62019983D01*
X70715500Y-61960373D01*
X70715500Y-61710000D01*
X71096823Y-61710000D01*
X71122341Y-61757155D01*
X71122343Y-61757158D01*
X71270200Y-61947124D01*
X71447301Y-62110157D01*
X71639998Y-62236053D01*
X71640000Y-62236052D01*
X71640000Y-61710000D01*
X71096823Y-61710000D01*
X70715500Y-61710000D01*
X70715500Y-60997886D01*
X71836123Y-60997886D01*
X71866884Y-61145915D01*
X71936442Y-61280156D01*
X72039638Y-61390652D01*
X72168819Y-61469209D01*
X72314404Y-61510000D01*
X72427622Y-61510000D01*
X72539783Y-61494584D01*
X72678458Y-61434349D01*
X72795739Y-61338934D01*
X72882928Y-61215415D01*
X72933559Y-61072953D01*
X72943877Y-60922114D01*
X72913116Y-60774085D01*
X72843558Y-60639844D01*
X72740362Y-60529348D01*
X72611181Y-60450791D01*
X72465596Y-60410000D01*
X72352378Y-60410000D01*
X72240217Y-60425416D01*
X72101542Y-60485651D01*
X71984261Y-60581066D01*
X71897072Y-60704585D01*
X71846441Y-60847047D01*
X71836123Y-60997886D01*
X70715500Y-60997886D01*
X70715499Y-59994499D01*
X70732812Y-59946934D01*
X70776649Y-59921624D01*
X70789499Y-59920500D01*
X71159597Y-59920500D01*
X71207163Y-59937813D01*
X71232473Y-59981650D01*
X71223683Y-60031500D01*
X71217993Y-60039952D01*
X71122343Y-60162841D01*
X71122341Y-60162844D01*
X71096823Y-60209999D01*
X71096824Y-60210000D01*
X73066000Y-60210000D01*
X73113566Y-60227313D01*
X73138876Y-60271150D01*
X73140000Y-60284000D01*
X73140000Y-62236052D01*
X73140001Y-62236053D01*
X73315026Y-62121703D01*
X73364316Y-62110180D01*
X73409481Y-62133036D01*
X73429388Y-62179576D01*
X73429500Y-62183653D01*
X73429500Y-67264500D01*
X73412187Y-67312066D01*
X73368350Y-67337376D01*
X73355500Y-67338500D01*
X73069127Y-67338500D01*
X73009514Y-67344909D01*
X72874670Y-67395202D01*
X72874669Y-67395203D01*
X72759454Y-67481454D01*
X72673203Y-67596669D01*
X72673202Y-67596670D01*
X72622910Y-67731512D01*
X72622909Y-67731517D01*
X72616500Y-67791126D01*
X72616500Y-70486873D01*
X72622909Y-70546485D01*
X72673202Y-70681329D01*
X72673203Y-70681330D01*
X72673204Y-70681331D01*
X72759454Y-70796546D01*
X72803697Y-70829666D01*
X72874669Y-70882796D01*
X72874670Y-70882797D01*
X72985605Y-70924172D01*
X73009517Y-70933091D01*
X73069127Y-70939500D01*
X75764872Y-70939499D01*
X75824483Y-70933091D01*
X75915135Y-70899280D01*
X75959329Y-70882797D01*
X75959329Y-70882796D01*
X75959331Y-70882796D01*
X76074546Y-70796546D01*
X76160796Y-70681331D01*
X76211091Y-70546483D01*
X76217500Y-70486873D01*
X76217499Y-69420770D01*
X76229549Y-69380297D01*
X76238957Y-69365895D01*
X76254173Y-69342607D01*
X76265776Y-69316154D01*
X76267866Y-69312092D01*
X76282656Y-69287273D01*
X76316580Y-69200332D01*
X76354063Y-69114881D01*
X76361153Y-69086879D01*
X76362551Y-69082517D01*
X76373048Y-69055618D01*
X76373050Y-69055614D01*
X76392202Y-68964274D01*
X76415108Y-68873821D01*
X76417492Y-68845036D01*
X76418153Y-68840505D01*
X76424081Y-68812237D01*
X76427937Y-68718990D01*
X76430500Y-68688067D01*
X76430500Y-68657035D01*
X76434357Y-68563779D01*
X76430783Y-68535112D01*
X76430500Y-68530533D01*
X76430500Y-62183653D01*
X76447813Y-62136087D01*
X76491650Y-62110777D01*
X76541500Y-62119567D01*
X76544974Y-62121703D01*
X76719998Y-62236053D01*
X76720000Y-62236052D01*
X76720000Y-61710000D01*
X78220000Y-61710000D01*
X78220000Y-62236052D01*
X78220001Y-62236053D01*
X78412698Y-62110157D01*
X78589799Y-61947124D01*
X78737656Y-61757158D01*
X78737658Y-61757155D01*
X78763176Y-61710000D01*
X78220000Y-61710000D01*
X76720000Y-61710000D01*
X76720000Y-60997886D01*
X76916123Y-60997886D01*
X76946884Y-61145915D01*
X77016442Y-61280156D01*
X77119638Y-61390652D01*
X77248819Y-61469209D01*
X77394404Y-61510000D01*
X77507622Y-61510000D01*
X77619783Y-61494584D01*
X77758458Y-61434349D01*
X77875739Y-61338934D01*
X77962928Y-61215415D01*
X78013559Y-61072953D01*
X78023877Y-60922114D01*
X77993116Y-60774085D01*
X77923558Y-60639844D01*
X77820362Y-60529348D01*
X77691181Y-60450791D01*
X77545596Y-60410000D01*
X77432378Y-60410000D01*
X77320217Y-60425416D01*
X77181542Y-60485651D01*
X77064261Y-60581066D01*
X76977072Y-60704585D01*
X76926441Y-60847047D01*
X76916123Y-60997886D01*
X76720000Y-60997886D01*
X76720000Y-60284000D01*
X76737313Y-60236434D01*
X76781150Y-60211124D01*
X76794000Y-60210000D01*
X78763176Y-60210000D01*
X78763176Y-60209999D01*
X78737658Y-60162844D01*
X78737656Y-60162841D01*
X78642007Y-60039952D01*
X78626453Y-59991782D01*
X78645501Y-59944884D01*
X78690239Y-59921201D01*
X78700403Y-59920500D01*
X79959500Y-59920500D01*
X80007066Y-59937813D01*
X80032376Y-59981650D01*
X80033500Y-59994500D01*
X80033500Y-66449819D01*
X80016187Y-66497385D01*
X80011826Y-66502145D01*
X79159572Y-67354398D01*
X79118276Y-67375245D01*
X79095240Y-67378717D01*
X79095227Y-67378720D01*
X78837367Y-67458259D01*
X78837359Y-67458262D01*
X78594225Y-67575349D01*
X78371258Y-67727366D01*
X78173440Y-67910913D01*
X78173431Y-67910923D01*
X78005188Y-68121892D01*
X78005181Y-68121903D01*
X77870256Y-68355603D01*
X77771664Y-68606809D01*
X77711617Y-68869896D01*
X77691451Y-69138998D01*
X77691451Y-69139001D01*
X77711617Y-69408103D01*
X77771664Y-69671190D01*
X77870256Y-69922396D01*
X78005181Y-70156096D01*
X78005188Y-70156107D01*
X78173431Y-70367076D01*
X78173438Y-70367084D01*
X78173439Y-70367085D01*
X78371259Y-70550635D01*
X78594226Y-70702651D01*
X78837359Y-70819738D01*
X78966293Y-70859509D01*
X79095220Y-70899278D01*
X79095222Y-70899278D01*
X79095228Y-70899280D01*
X79362071Y-70939500D01*
X79362076Y-70939500D01*
X79631924Y-70939500D01*
X79631929Y-70939500D01*
X79898772Y-70899280D01*
X79898777Y-70899278D01*
X79898779Y-70899278D01*
X79942670Y-70885739D01*
X80156641Y-70819738D01*
X80399775Y-70702651D01*
X80622741Y-70550635D01*
X80820561Y-70367085D01*
X80976319Y-70171771D01*
X83743788Y-70171771D01*
X83773414Y-70441019D01*
X83841813Y-70702651D01*
X83841928Y-70703088D01*
X83891498Y-70819735D01*
X83947870Y-70952390D01*
X84088982Y-71183610D01*
X84088984Y-71183612D01*
X84262252Y-71391817D01*
X84262253Y-71391818D01*
X84262255Y-71391820D01*
X84463998Y-71572582D01*
X84689910Y-71722044D01*
X84935176Y-71837020D01*
X85080628Y-71880780D01*
X85194564Y-71915059D01*
X85194573Y-71915061D01*
X85462559Y-71954500D01*
X85462561Y-71954500D01*
X85665628Y-71954500D01*
X85665631Y-71954500D01*
X85868156Y-71939677D01*
X86132553Y-71880780D01*
X86385558Y-71784014D01*
X86621777Y-71651441D01*
X86836177Y-71485888D01*
X87024186Y-71290881D01*
X87181799Y-71070579D01*
X87305656Y-70829675D01*
X87348991Y-70702650D01*
X87393116Y-70573312D01*
X87393118Y-70573305D01*
X87398072Y-70546482D01*
X87442319Y-70306933D01*
X87452212Y-70036235D01*
X87422586Y-69766982D01*
X87354072Y-69504912D01*
X87248130Y-69255610D01*
X87107018Y-69024390D01*
X86981712Y-68873819D01*
X86933747Y-68816182D01*
X86828760Y-68722113D01*
X86732002Y-68635418D01*
X86506090Y-68485956D01*
X86506086Y-68485954D01*
X86506087Y-68485954D01*
X86260824Y-68370980D01*
X86001435Y-68292940D01*
X86001426Y-68292938D01*
X85733441Y-68253500D01*
X85733439Y-68253500D01*
X85530369Y-68253500D01*
X85443572Y-68259852D01*
X85327840Y-68268323D01*
X85063448Y-68327219D01*
X84810449Y-68423983D01*
X84810440Y-68423987D01*
X84574223Y-68556559D01*
X84574218Y-68556562D01*
X84359822Y-68722113D01*
X84359818Y-68722116D01*
X84171812Y-68917120D01*
X84014199Y-69137423D01*
X83890348Y-69378315D01*
X83890340Y-69378333D01*
X83802883Y-69634687D01*
X83802881Y-69634694D01*
X83756664Y-69884912D01*
X83753681Y-69901067D01*
X83744361Y-70156102D01*
X83743788Y-70171771D01*
X80976319Y-70171771D01*
X80988815Y-70156102D01*
X81123743Y-69922398D01*
X81222334Y-69671195D01*
X81257663Y-69516403D01*
X81277480Y-69480546D01*
X82527517Y-68230510D01*
X82530936Y-68227489D01*
X82553744Y-68209738D01*
X82616949Y-68141078D01*
X82638896Y-68119133D01*
X82638896Y-68119132D01*
X82638896Y-68119131D01*
X82638902Y-68119126D01*
X82658966Y-68095435D01*
X82722164Y-68026785D01*
X82737958Y-68002608D01*
X82740695Y-67998937D01*
X82759366Y-67976894D01*
X82807139Y-67896720D01*
X82858173Y-67818607D01*
X82869774Y-67792155D01*
X82871863Y-67788097D01*
X82886656Y-67763274D01*
X82920579Y-67676335D01*
X82958063Y-67590881D01*
X82965155Y-67562869D01*
X82966546Y-67558528D01*
X82977049Y-67531614D01*
X82996198Y-67440288D01*
X83019108Y-67349821D01*
X83021492Y-67321035D01*
X83022151Y-67316512D01*
X83028081Y-67288237D01*
X83031937Y-67194990D01*
X83034500Y-67164067D01*
X83034500Y-67133035D01*
X83038357Y-67039779D01*
X83034783Y-67011113D01*
X83034500Y-67006535D01*
X83034500Y-59994500D01*
X83051813Y-59946934D01*
X83095650Y-59921624D01*
X83108500Y-59920500D01*
X84150500Y-59920500D01*
X84198066Y-59937813D01*
X84223376Y-59981650D01*
X84224500Y-59994500D01*
X84224500Y-61960373D01*
X84230909Y-62019985D01*
X84281202Y-62154829D01*
X84281203Y-62154830D01*
X84281204Y-62154831D01*
X84367454Y-62270046D01*
X84482669Y-62356296D01*
X84482670Y-62356297D01*
X84593605Y-62397672D01*
X84617517Y-62406591D01*
X84677127Y-62413000D01*
X86772872Y-62412999D01*
X86832483Y-62406591D01*
X86899907Y-62381443D01*
X86967329Y-62356297D01*
X86967329Y-62356296D01*
X86967331Y-62356296D01*
X87082546Y-62270046D01*
X87168796Y-62154831D01*
X87219091Y-62019983D01*
X87225500Y-61960373D01*
X87225499Y-61009740D01*
X87242812Y-60962175D01*
X87247161Y-60957427D01*
X88271694Y-59932894D01*
X88284373Y-59922739D01*
X88285877Y-59921786D01*
X88333226Y-59871364D01*
X88354120Y-59850471D01*
X88359107Y-59844041D01*
X88361339Y-59841427D01*
X88394062Y-59806582D01*
X88405609Y-59785575D01*
X88411980Y-59775876D01*
X88426673Y-59756936D01*
X88445655Y-59713066D01*
X88447169Y-59709977D01*
X88470197Y-59668092D01*
X88476157Y-59644876D01*
X88479918Y-59633892D01*
X88489437Y-59611895D01*
X88490028Y-59608164D01*
X88496912Y-59564696D01*
X88497609Y-59561325D01*
X88509500Y-59515019D01*
X88509500Y-59491049D01*
X88510411Y-59479473D01*
X88514160Y-59455804D01*
X88509664Y-59408240D01*
X88509500Y-59404756D01*
X88509500Y-55195223D01*
X88511282Y-55179080D01*
X88511673Y-55177333D01*
X88509500Y-55108185D01*
X88509500Y-55078650D01*
X88509500Y-55078646D01*
X88509499Y-55078645D01*
X88508484Y-55070611D01*
X88508209Y-55067129D01*
X88507177Y-55034292D01*
X88506709Y-55019373D01*
X88500023Y-54996362D01*
X88497667Y-54984988D01*
X88494664Y-54961208D01*
X88477075Y-54916785D01*
X88475948Y-54913491D01*
X88462618Y-54867610D01*
X88450416Y-54846978D01*
X88445308Y-54836550D01*
X88436486Y-54814269D01*
X88436482Y-54814261D01*
X88422275Y-54794709D01*
X88408394Y-54775602D01*
X88406489Y-54772702D01*
X88382170Y-54731580D01*
X88365221Y-54714631D01*
X88357682Y-54705804D01*
X88351024Y-54696640D01*
X88343594Y-54686412D01*
X88321582Y-54668203D01*
X88306775Y-54655954D01*
X88304204Y-54653614D01*
X87364897Y-53714306D01*
X87354746Y-53701636D01*
X87353786Y-53700123D01*
X87303364Y-53652773D01*
X87282471Y-53631880D01*
X87276056Y-53626903D01*
X87273413Y-53624646D01*
X87238582Y-53591938D01*
X87238580Y-53591936D01*
X87238573Y-53591932D01*
X87217573Y-53580387D01*
X87207866Y-53574011D01*
X87188937Y-53559327D01*
X87145080Y-53540348D01*
X87141963Y-53538821D01*
X87124211Y-53529062D01*
X87100098Y-53515805D01*
X87100094Y-53515804D01*
X87100093Y-53515803D01*
X87100092Y-53515803D01*
X87076877Y-53509842D01*
X87065896Y-53506082D01*
X87043904Y-53496565D01*
X87043900Y-53496563D01*
X87043896Y-53496562D01*
X87043892Y-53496561D01*
X87043891Y-53496561D01*
X86996697Y-53489085D01*
X86993284Y-53488378D01*
X86947020Y-53476500D01*
X86947019Y-53476500D01*
X86923051Y-53476500D01*
X86911476Y-53475589D01*
X86899597Y-53473707D01*
X86887804Y-53471840D01*
X86887803Y-53471840D01*
X86840241Y-53476336D01*
X86836757Y-53476500D01*
X84659224Y-53476500D01*
X84643084Y-53474718D01*
X84641335Y-53474327D01*
X84641327Y-53474326D01*
X84572172Y-53476500D01*
X84542646Y-53476500D01*
X84534599Y-53477516D01*
X84531129Y-53477788D01*
X84528248Y-53477879D01*
X84483377Y-53479289D01*
X84483371Y-53479290D01*
X84460350Y-53485978D01*
X84448985Y-53488331D01*
X84425212Y-53491335D01*
X84425210Y-53491335D01*
X84425208Y-53491336D01*
X84412011Y-53496561D01*
X84380784Y-53508923D01*
X84377487Y-53510052D01*
X84331616Y-53523379D01*
X84331608Y-53523382D01*
X84310975Y-53535584D01*
X84300553Y-53540689D01*
X84278275Y-53549510D01*
X84278266Y-53549515D01*
X84239612Y-53577597D01*
X84236699Y-53579511D01*
X84195583Y-53603827D01*
X84195575Y-53603833D01*
X84178629Y-53620778D01*
X84169806Y-53628315D01*
X84150410Y-53642408D01*
X84150409Y-53642409D01*
X84119956Y-53679219D01*
X84117610Y-53681798D01*
X82968583Y-54830826D01*
X82922707Y-54852218D01*
X82916257Y-54852500D01*
X82836354Y-54852500D01*
X82803897Y-54859398D01*
X82651197Y-54891855D01*
X82651195Y-54891856D01*
X82478271Y-54968847D01*
X82478266Y-54968850D01*
X82325131Y-55080109D01*
X82198467Y-55220783D01*
X82198464Y-55220786D01*
X82103819Y-55384719D01*
X82045327Y-55564738D01*
X82025540Y-55753000D01*
X82045327Y-55941261D01*
X82103819Y-56121280D01*
X82198464Y-56285213D01*
X82198467Y-56285216D01*
X82325131Y-56425890D01*
X82478266Y-56537149D01*
X82478271Y-56537152D01*
X82573386Y-56579500D01*
X82651197Y-56614144D01*
X82836354Y-56653500D01*
X82836355Y-56653500D01*
X83025645Y-56653500D01*
X83025646Y-56653500D01*
X83210803Y-56614144D01*
X83383730Y-56537151D01*
X83420882Y-56510159D01*
X83509507Y-56445769D01*
X83536871Y-56425888D01*
X83663533Y-56285216D01*
X83666336Y-56280362D01*
X83690843Y-56237913D01*
X83758179Y-56121284D01*
X83816674Y-55941256D01*
X83836172Y-55755735D01*
X83857439Y-55711149D01*
X84151731Y-55416857D01*
X84197606Y-55395466D01*
X84246501Y-55408567D01*
X84275535Y-55450031D01*
X84274047Y-55493210D01*
X84264134Y-55522085D01*
X84264134Y-55522087D01*
X84224500Y-55759598D01*
X84224500Y-55759601D01*
X84224500Y-56000399D01*
X84264134Y-56237913D01*
X84278707Y-56280362D01*
X84342321Y-56465665D01*
X84381007Y-56537149D01*
X84456928Y-56677439D01*
X84456930Y-56677441D01*
X84552359Y-56800049D01*
X84567912Y-56848219D01*
X84548863Y-56895117D01*
X84504126Y-56918799D01*
X84493962Y-56919500D01*
X79044500Y-56919500D01*
X78996934Y-56902187D01*
X78971624Y-56858350D01*
X78970500Y-56845500D01*
X78970499Y-54879626D01*
X78967583Y-54852500D01*
X78964091Y-54820017D01*
X78961944Y-54814261D01*
X78913797Y-54685170D01*
X78913796Y-54685169D01*
X78827546Y-54569954D01*
X78712331Y-54483704D01*
X78712330Y-54483703D01*
X78712329Y-54483702D01*
X78577487Y-54433410D01*
X78577484Y-54433409D01*
X78577483Y-54433409D01*
X78517873Y-54427000D01*
X76422126Y-54427000D01*
X76362514Y-54433409D01*
X76227670Y-54483702D01*
X76227669Y-54483703D01*
X76112454Y-54569954D01*
X76026203Y-54685169D01*
X76026202Y-54685170D01*
X75975910Y-54820012D01*
X75975909Y-54820017D01*
X75969500Y-54879626D01*
X75969500Y-55180500D01*
X75952187Y-55228066D01*
X75908350Y-55253376D01*
X75895500Y-55254500D01*
X75473743Y-55254500D01*
X75426177Y-55237187D01*
X75421417Y-55232826D01*
X69579255Y-49390664D01*
X73289995Y-49390664D01*
X73517332Y-49460788D01*
X73517343Y-49460791D01*
X73784114Y-49501000D01*
X74053886Y-49501000D01*
X74320656Y-49460791D01*
X74320666Y-49460788D01*
X74548002Y-49390664D01*
X74206212Y-49048873D01*
X77198500Y-49048873D01*
X77204909Y-49108485D01*
X77255202Y-49243329D01*
X77255203Y-49243330D01*
X77255204Y-49243331D01*
X77341454Y-49358546D01*
X77442292Y-49434033D01*
X77456669Y-49444796D01*
X77456670Y-49444797D01*
X77567605Y-49486172D01*
X77591517Y-49495091D01*
X77651127Y-49501500D01*
X80346872Y-49501499D01*
X80406483Y-49495091D01*
X80498454Y-49460788D01*
X80541329Y-49444797D01*
X80541329Y-49444796D01*
X80541331Y-49444796D01*
X80656546Y-49358546D01*
X80742796Y-49243331D01*
X80793091Y-49108483D01*
X80799500Y-49048873D01*
X80799499Y-46549771D01*
X83743788Y-46549771D01*
X83773414Y-46819019D01*
X83840841Y-47076933D01*
X83841928Y-47081088D01*
X83876802Y-47163153D01*
X83947870Y-47330390D01*
X84088982Y-47561610D01*
X84088984Y-47561612D01*
X84262252Y-47769817D01*
X84262253Y-47769818D01*
X84262255Y-47769820D01*
X84463998Y-47950582D01*
X84689910Y-48100044D01*
X84935176Y-48215020D01*
X85080628Y-48258780D01*
X85194564Y-48293059D01*
X85194573Y-48293061D01*
X85462559Y-48332500D01*
X85462561Y-48332500D01*
X85665628Y-48332500D01*
X85665631Y-48332500D01*
X85868156Y-48317677D01*
X86132553Y-48258780D01*
X86385558Y-48162014D01*
X86621777Y-48029441D01*
X86836177Y-47863888D01*
X87024186Y-47668881D01*
X87181799Y-47448579D01*
X87305656Y-47207675D01*
X87354809Y-47063597D01*
X87393116Y-46951312D01*
X87393118Y-46951305D01*
X87442319Y-46684933D01*
X87452212Y-46414235D01*
X87422586Y-46144982D01*
X87354072Y-45882912D01*
X87248130Y-45633610D01*
X87107018Y-45402390D01*
X86967982Y-45235320D01*
X86933747Y-45194182D01*
X86828760Y-45100113D01*
X86732002Y-45013418D01*
X86506090Y-44863956D01*
X86506086Y-44863954D01*
X86506087Y-44863954D01*
X86260824Y-44748980D01*
X86001435Y-44670940D01*
X86001426Y-44670938D01*
X85733441Y-44631500D01*
X85733439Y-44631500D01*
X85530369Y-44631500D01*
X85443572Y-44637852D01*
X85327840Y-44646323D01*
X85063448Y-44705219D01*
X84810449Y-44801983D01*
X84810440Y-44801987D01*
X84574223Y-44934559D01*
X84574218Y-44934562D01*
X84359822Y-45100113D01*
X84359818Y-45100116D01*
X84171812Y-45295120D01*
X84014199Y-45515423D01*
X83890348Y-45756315D01*
X83890340Y-45756333D01*
X83802883Y-46012687D01*
X83802881Y-46012694D01*
X83775919Y-46158669D01*
X83753681Y-46279067D01*
X83748742Y-46414228D01*
X83743788Y-46549771D01*
X80799499Y-46549771D01*
X80799499Y-46353128D01*
X80793091Y-46293517D01*
X80759957Y-46204680D01*
X80742797Y-46158670D01*
X80742796Y-46158669D01*
X80732527Y-46144952D01*
X80656546Y-46043454D01*
X80541331Y-45957204D01*
X80541330Y-45957203D01*
X80541329Y-45957202D01*
X80406487Y-45906910D01*
X80406484Y-45906909D01*
X80406483Y-45906909D01*
X80346873Y-45900500D01*
X77651126Y-45900500D01*
X77591514Y-45906909D01*
X77456670Y-45957202D01*
X77456669Y-45957203D01*
X77341454Y-46043454D01*
X77255203Y-46158669D01*
X77255202Y-46158670D01*
X77204910Y-46293512D01*
X77204909Y-46293517D01*
X77198500Y-46353126D01*
X77198500Y-49048873D01*
X74206212Y-49048873D01*
X73919000Y-48761660D01*
X73289995Y-49390664D01*
X69579255Y-49390664D01*
X68883825Y-48695234D01*
X68862433Y-48649358D01*
X68864673Y-48623755D01*
X68899062Y-48495412D01*
X68899063Y-48495405D01*
X68919659Y-48260004D01*
X68919659Y-48259995D01*
X68905664Y-48100044D01*
X68899063Y-48024592D01*
X68837903Y-47796337D01*
X68793447Y-47701001D01*
X72113953Y-47701001D01*
X72134114Y-47970028D01*
X72194144Y-48233040D01*
X72231391Y-48327946D01*
X72858338Y-47700999D01*
X72817201Y-47659862D01*
X73265127Y-47659862D01*
X73275439Y-47823766D01*
X73326188Y-47979956D01*
X73414186Y-48118619D01*
X73533903Y-48231040D01*
X73677817Y-48310158D01*
X73836886Y-48351000D01*
X73959894Y-48351000D01*
X74081933Y-48335583D01*
X74234629Y-48275126D01*
X74367492Y-48178595D01*
X74472175Y-48052055D01*
X74542100Y-47903457D01*
X74572873Y-47742138D01*
X74570285Y-47700999D01*
X74979660Y-47700999D01*
X75606607Y-48327946D01*
X75643855Y-48233042D01*
X75703885Y-47970028D01*
X75724047Y-47701001D01*
X75724047Y-47700998D01*
X75703885Y-47431971D01*
X75643855Y-47168956D01*
X75606607Y-47074052D01*
X74979660Y-47700999D01*
X74570285Y-47700999D01*
X74562561Y-47578234D01*
X74511812Y-47422044D01*
X74423814Y-47283381D01*
X74304097Y-47170960D01*
X74160183Y-47091842D01*
X74001114Y-47051000D01*
X73878106Y-47051000D01*
X73756067Y-47066417D01*
X73603371Y-47126874D01*
X73470508Y-47223405D01*
X73365825Y-47349945D01*
X73295900Y-47498543D01*
X73265127Y-47659862D01*
X72817201Y-47659862D01*
X72231390Y-47074051D01*
X72194144Y-47168956D01*
X72134114Y-47431971D01*
X72113953Y-47700998D01*
X72113953Y-47701001D01*
X68793447Y-47701001D01*
X68738035Y-47582171D01*
X68602495Y-47388599D01*
X68435401Y-47221505D01*
X68435398Y-47221503D01*
X68435399Y-47221503D01*
X68419698Y-47210509D01*
X68411281Y-47204616D01*
X68382249Y-47163153D01*
X68386660Y-47112726D01*
X68422453Y-47076933D01*
X68453727Y-47070000D01*
X68461829Y-47070000D01*
X68521375Y-47063597D01*
X68521380Y-47063596D01*
X68656087Y-47013354D01*
X68656088Y-47013353D01*
X68771188Y-46927188D01*
X68857353Y-46812088D01*
X68857354Y-46812087D01*
X68907596Y-46677380D01*
X68907597Y-46677375D01*
X68914000Y-46617828D01*
X68914000Y-46470000D01*
X66214000Y-46470000D01*
X66214000Y-46617828D01*
X66220402Y-46677375D01*
X66220403Y-46677380D01*
X66270645Y-46812087D01*
X66270646Y-46812088D01*
X66356811Y-46927188D01*
X66471911Y-47013353D01*
X66471912Y-47013354D01*
X66606619Y-47063596D01*
X66606624Y-47063597D01*
X66666171Y-47070000D01*
X66674273Y-47070000D01*
X66721839Y-47087313D01*
X66747149Y-47131150D01*
X66738359Y-47181000D01*
X66716718Y-47204617D01*
X66692598Y-47221505D01*
X66525504Y-47388599D01*
X66525502Y-47388602D01*
X66389967Y-47582167D01*
X66389965Y-47582170D01*
X66389965Y-47582171D01*
X66290097Y-47796337D01*
X66248768Y-47950582D01*
X66228936Y-48024596D01*
X66208341Y-48259995D01*
X66208341Y-48260004D01*
X66228936Y-48495403D01*
X66228937Y-48495405D01*
X66228937Y-48495408D01*
X66290097Y-48723663D01*
X66389965Y-48937830D01*
X66525505Y-49131401D01*
X66692599Y-49298495D01*
X66886170Y-49434035D01*
X66948144Y-49462934D01*
X66983936Y-49498726D01*
X66988347Y-49549153D01*
X66959314Y-49590617D01*
X66948145Y-49597065D01*
X66886171Y-49625965D01*
X66886167Y-49625967D01*
X66692602Y-49761502D01*
X66692599Y-49761504D01*
X66525504Y-49928599D01*
X66525502Y-49928602D01*
X66389967Y-50122167D01*
X66290099Y-50336333D01*
X66290098Y-50336334D01*
X66228936Y-50564596D01*
X66208341Y-50799995D01*
X66208341Y-50800004D01*
X64970500Y-50800004D01*
X64970500Y-45791889D01*
X67064000Y-45791889D01*
X67104507Y-45929844D01*
X67182239Y-46050798D01*
X67290900Y-46144952D01*
X67421685Y-46204680D01*
X67528237Y-46220000D01*
X67599763Y-46220000D01*
X67706315Y-46204680D01*
X67837100Y-46144952D01*
X67945761Y-46050798D01*
X67971123Y-46011334D01*
X73289995Y-46011334D01*
X73918999Y-46640338D01*
X74548003Y-46011334D01*
X74320668Y-45941210D01*
X74053886Y-45901000D01*
X73784114Y-45901000D01*
X73517331Y-45941210D01*
X73289995Y-46011334D01*
X67971123Y-46011334D01*
X68023493Y-45929844D01*
X68064000Y-45791889D01*
X68064000Y-45648111D01*
X68023493Y-45510156D01*
X67945761Y-45389202D01*
X67837100Y-45295048D01*
X67706315Y-45235320D01*
X67599763Y-45220000D01*
X67528237Y-45220000D01*
X67421685Y-45235320D01*
X67290900Y-45295048D01*
X67182239Y-45389202D01*
X67104507Y-45510156D01*
X67064000Y-45648111D01*
X67064000Y-45791889D01*
X64970500Y-45791889D01*
X64970500Y-45213218D01*
X64970579Y-45210797D01*
X64986362Y-44970000D01*
X66214000Y-44970000D01*
X66814000Y-44970000D01*
X66814000Y-44370000D01*
X68314000Y-44370000D01*
X68314000Y-44970000D01*
X68914000Y-44970000D01*
X68914000Y-44822171D01*
X68907597Y-44762624D01*
X68907596Y-44762619D01*
X68857354Y-44627912D01*
X68857353Y-44627911D01*
X68771188Y-44512811D01*
X68656088Y-44426646D01*
X68656087Y-44426645D01*
X68521380Y-44376403D01*
X68521375Y-44376402D01*
X68461829Y-44370000D01*
X68314000Y-44370000D01*
X66814000Y-44370000D01*
X66666171Y-44370000D01*
X66606624Y-44376402D01*
X66606619Y-44376403D01*
X66471912Y-44426645D01*
X66471911Y-44426646D01*
X66356811Y-44512811D01*
X66270646Y-44627911D01*
X66270645Y-44627912D01*
X66220403Y-44762619D01*
X66220402Y-44762624D01*
X66214000Y-44822171D01*
X66214000Y-44970000D01*
X64986362Y-44970000D01*
X64988184Y-44942206D01*
X64988814Y-44937410D01*
X65041092Y-44674593D01*
X65042334Y-44669957D01*
X65128469Y-44416210D01*
X65130318Y-44411744D01*
X65248836Y-44171415D01*
X65251241Y-44167248D01*
X65400124Y-43944429D01*
X65403062Y-43940603D01*
X65418247Y-43923288D01*
X65579732Y-43739149D01*
X65583149Y-43735732D01*
X65784607Y-43559058D01*
X65788429Y-43556124D01*
X66011248Y-43407241D01*
X66015415Y-43404836D01*
X66255744Y-43286318D01*
X66260210Y-43284469D01*
X66513957Y-43198334D01*
X66518593Y-43197092D01*
X66781410Y-43144814D01*
X66786206Y-43144184D01*
X67054797Y-43126579D01*
X67057218Y-43126500D01*
X67095882Y-43126500D01*
X86828118Y-43126500D01*
X86866782Y-43126500D01*
X86869203Y-43126579D01*
G37*
%TD.AperFunction*%
%TD*%
M02*
