M48
; DRILL file {KiCad 7.0.9} date Sat Dec 30 10:40:06 2023
; FORMAT={-:-/ absolute / inch / decimal}
; #@! TF.CreationDate,2023-12-30T10:40:06-05:00
; #@! TF.GenerationSoftware,Kicad,Pcbnew,7.0.9
; #@! TF.FileFunction,Plated,1,2,PTH
FMAT,2
INCH
; #@! TA.AperFunction,Plated,PTH,ViaDrill
T1C0.0157
; #@! TA.AperFunction,Plated,PTH,ComponentDrill
T2C0.0394
; #@! TA.AperFunction,Plated,PTH,ComponentDrill
T3C0.0433
; #@! TA.AperFunction,Plated,PTH,ComponentDrill
T4C0.0512
%
G90
G05
T1
X2.58Y-2.63
X2.63Y-2.15
X2.685Y-2.475
X2.74Y-2.66
X2.79Y-1.93
X2.84Y-2.51
X3.0Y-1.81
X3.02Y-2.76
X3.06Y-2.5
X3.11Y-2.03
X3.21Y-2.22
X3.25Y-1.84
X3.265Y-2.195
X3.32Y-2.51
X3.48Y-2.1
X3.48Y-2.43
T2
X2.66Y-1.8
X2.66Y-1.9
X2.66Y-2.0
T3
X2.725Y-2.2
X2.725Y-2.3
X2.725Y-2.4
X2.85Y-2.2
X2.85Y-2.3
X2.85Y-2.4
X3.05Y-2.2
X3.05Y-2.3
X3.05Y-2.4
X3.375Y-2.2
X3.375Y-2.3
X3.375Y-2.4
T4
X2.9102Y-1.878
X2.9298Y-2.722
X3.1102Y-1.878
X3.1298Y-2.722
T0
M30
